<?xml version="1.0" ?><!DOCTYPE svg  PUBLIC '-//W3C//DTD SVG 1.1//EN'  'http://www.w3.org/Graphics/SVG/1.1/DTD/svg11.dtd'><svg height="139px" style="enable-background:new 0 0 121 139;" version="1.1" viewBox="0 0 121 139" width="121px" xml:space="preserve" xmlns="http://www.w3.org/2000/svg" xmlns:xlink="http://www.w3.org/1999/xlink"><style type="text/css">
<![CDATA[
	.st0{fill:#EF3E42;}
	.st1{fill:#FFFFFF;}
	.st2{fill:none;}
	.st3{fill-rule:evenodd;clip-rule:evenodd;fill:#FFFFFF;}
]]>
</style><defs/><path d="M75,106.6c-10.6,0-20.6-4.1-28.1-11.6S35.3,77.5,35.3,66.9c0-10.6,4.1-20.6,11.6-28.1c7.5-7.5,17.5-11.6,28.1-11.6  c10.6,0,20.6,4.1,28.1,11.6c15.5,15.5,15.5,40.7,0,56.2C95.6,102.5,85.6,106.6,75,106.6L75,106.6z M75,38.8  c-7.5,0-14.6,2.9-19.9,8.2c-11,11-11,28.8,0,39.8C60.4,92.1,67.5,95,75,95c7.5,0,14.6-2.9,19.9-8.2c5.3-5.3,8.2-12.4,8.2-19.9  c0-7.5-2.9-14.6-8.2-19.9C89.6,41.7,82.5,38.8,75,38.8L75,38.8z M7.6,123.4l29.8-29.8c1.5,2.1,3.2,4.1,5,5.9c1.8,1.8,3.8,3.5,5.9,5  l-29.8,29.8L7.6,123.4L7.6,123.4z"/><rect class="st2" height="139" id="_x3C_Slice_x3E__100_" width="121"/></svg>