<svg id="svg" version="1.1" xmlns="http://www.w3.org/2000/svg" xmlns:xlink="http://www.w3.org/1999/xlink" width="400" height="400" viewBox="0, 0, 400,400"><g id="svgg"><path id="path0" d="M113.704 105.265 C 111.677 105.780,107.407 107.445,107.407 107.720 C 107.407 107.856,106.949 108.170,106.389 108.418 C 104.626 109.199,102.333 111.211,100.185 113.864 C 99.574 114.619,98.724 115.623,98.296 116.096 C 97.868 116.569,97.146 117.559,96.690 118.295 C 95.670 119.946,95.378 119.792,94.825 117.316 C 94.587 116.246,94.251 115.037,94.081 114.630 C 93.558 113.382,92.593 110.076,92.593 109.532 C 92.593 108.822,91.048 107.476,90.370 107.596 C 90.065 107.650,89.148 107.799,88.333 107.927 C 87.519 108.056,85.435 108.566,83.704 109.062 C 81.972 109.557,80.222 110.012,79.815 110.074 C 79.407 110.135,78.991 110.294,78.889 110.426 C 78.787 110.558,78.037 110.771,77.222 110.898 C 76.407 111.025,75.449 111.219,75.093 111.330 C 74.736 111.441,74.444 111.343,74.444 111.113 C 74.444 110.367,72.297 113.023,72.110 114.001 C 71.887 115.168,73.613 117.091,74.681 116.864 C 75.060 116.783,76.954 116.284,78.889 115.754 C 89.337 112.895,88.519 113.043,88.519 114.014 C 88.519 114.389,88.951 116.068,89.479 117.746 C 90.677 121.555,90.819 121.497,86.725 118.867 C 83.065 116.516,82.596 116.426,80.322 117.636 C 79.636 118.001,78.949 118.266,78.796 118.224 C 78.644 118.182,78.519 118.290,78.519 118.462 C 78.519 118.635,77.810 119.090,76.944 119.474 C 76.079 119.858,75.164 120.370,74.911 120.612 C 74.658 120.854,73.866 121.244,73.152 121.480 C 72.437 121.716,71.852 122.073,71.852 122.273 C 71.852 122.473,71.685 122.533,71.481 122.407 C 71.278 122.282,71.111 122.332,71.111 122.520 C 71.111 122.708,70.319 123.161,69.352 123.526 C 68.384 123.891,67.195 124.497,66.709 124.873 C 66.224 125.248,65.591 125.556,65.303 125.556 C 64.578 125.556,62.963 127.371,62.963 128.185 C 62.963 131.667,65.275 131.826,70.741 128.720 C 73.083 127.389,75.196 126.299,75.437 126.298 C 75.677 126.297,76.135 126.034,76.455 125.714 C 76.775 125.394,77.037 125.239,77.037 125.370 C 77.037 125.501,77.299 125.347,77.619 125.026 C 77.939 124.706,78.427 124.444,78.704 124.444 C 78.980 124.444,79.468 124.183,79.788 123.862 C 80.108 123.542,80.370 123.459,80.370 123.677 C 80.370 123.896,80.704 123.741,81.111 123.333 C 82.226 122.218,82.772 122.403,87.593 125.529 C 90.950 127.706,92.014 128.582,91.943 129.113 C 91.892 129.499,91.748 131.107,91.624 132.686 C 91.500 134.266,91.378 135.766,91.352 136.020 C 91.243 137.099,91.916 141.107,92.239 141.307 C 92.434 141.427,92.593 141.860,92.593 142.270 C 92.593 144.422,98.672 150.370,100.871 150.370 C 101.139 150.370,101.474 150.486,101.616 150.628 C 102.387 151.400,108.395 151.734,111.667 151.187 C 116.592 150.364,124.178 147.339,125.272 145.763 C 125.422 145.547,125.547 145.507,125.550 145.675 C 125.553 145.842,125.787 145.759,126.070 145.489 C 126.353 145.220,127.049 144.667,127.616 144.259 C 129.778 142.707,136.800 134.045,136.867 132.847 C 136.881 132.605,137.079 131.972,137.307 131.439 C 137.659 130.615,138.303 126.154,138.235 125.000 C 138.122 123.074,137.727 121.042,137.226 119.815 C 136.255 117.440,135.463 115.755,135.223 115.556 C 135.100 115.454,134.750 114.930,134.444 114.391 C 132.870 111.615,126.688 106.752,123.889 106.088 C 123.278 105.942,122.596 105.682,122.374 105.508 C 121.796 105.057,115.244 104.873,113.704 105.265 M111.852 117.306 C 112.157 117.423,112.610 117.562,112.857 117.614 C 117.653 118.622,118.950 126.565,115.206 132.007 C 113.194 134.931,109.233 138.404,108.457 137.925 C 108.287 137.820,108.148 137.874,108.148 138.045 C 108.148 138.553,105.764 139.329,105.612 138.872 C 105.540 138.656,105.251 138.780,104.970 139.147 C 104.559 139.683,104.394 139.717,104.133 139.321 C 103.867 138.918,103.768 138.928,103.595 139.380 C 103.430 139.810,103.088 139.867,102.062 139.635 C 101.335 139.471,100.741 139.413,100.741 139.505 C 100.741 139.598,100.532 139.543,100.278 139.384 C 100.023 139.225,99.598 139.062,99.334 139.022 C 95.941 138.508,93.556 131.328,95.507 127.503 C 95.690 127.145,96.056 126.390,96.320 125.825 C 96.585 125.260,97.229 124.313,97.752 123.720 C 98.276 123.127,98.963 122.339,99.280 121.969 C 99.597 121.599,100.324 120.963,100.895 120.556 C 101.466 120.148,102.165 119.595,102.448 119.325 C 102.731 119.056,102.963 118.943,102.963 119.074 C 102.963 119.205,103.223 119.052,103.541 118.734 C 104.011 118.264,105.784 117.629,108.670 116.898 C 109.129 116.781,111.169 117.043,111.852 117.306 M168.519 134.815 C 168.519 135.434,168.765 135.556,170.018 135.556 C 172.152 135.556,173.554 136.382,173.839 137.808 C 174.173 139.476,174.132 174.444,173.796 174.444 C 173.644 174.444,173.563 192.834,173.617 215.310 L 173.715 256.176 172.801 257.162 C 172.023 258.002,171.582 258.148,169.832 258.148 C 168.025 258.148,167.778 258.237,167.778 258.889 C 167.778 259.620,168.025 259.630,186.481 259.630 C 204.938 259.630,205.185 259.620,205.185 258.889 C 205.185 258.259,204.938 258.148,203.536 258.148 C 199.062 258.148,199.111 258.402,199.391 236.852 C 199.515 227.278,199.616 201.086,199.616 178.649 L 199.614 137.853 200.581 136.704 C 201.442 135.680,201.765 135.556,203.551 135.556 C 205.309 135.556,205.556 135.464,205.556 134.815 C 205.556 134.084,205.309 134.074,187.037 134.074 C 168.765 134.074,168.519 134.084,168.519 134.815 M157.692 135.824 C 158.358 135.906,159.358 135.905,159.914 135.820 C 160.471 135.736,159.926 135.668,158.704 135.670 C 157.481 135.672,157.026 135.742,157.692 135.824 M154.986 156.481 C 154.986 166.463,155.034 170.493,155.092 165.437 C 155.151 160.381,155.151 152.215,155.092 147.289 C 155.034 142.363,154.986 146.500,154.986 156.481 M132.754 143.056 L 131.667 144.259 132.870 143.171 C 133.532 142.573,134.074 142.031,134.074 141.968 C 134.074 141.682,133.768 141.934,132.754 143.056 M154.986 195.370 C 154.986 205.352,155.034 209.382,155.092 204.326 C 155.151 199.270,155.151 191.104,155.092 186.178 C 155.034 181.252,154.986 185.389,154.986 195.370 M218.320 198.148 C 218.320 208.231,218.367 212.356,218.426 207.315 C 218.484 202.273,218.484 194.023,218.426 188.981 C 218.367 183.940,218.320 188.065,218.320 198.148 M273.889 191.111 C 272.441 192.070,272.956 192.071,274.528 191.112 C 275.195 190.706,275.574 190.374,275.370 190.374 C 275.167 190.375,274.500 190.706,273.889 191.111 M255.000 201.852 C 253.552 202.811,254.067 202.812,255.639 201.853 C 256.306 201.447,256.685 201.114,256.481 201.115 C 256.278 201.116,255.611 201.447,255.000 201.852 M249.009 205.059 C 249.143 205.193,249.067 205.526,248.840 205.799 C 248.537 206.165,248.538 206.296,248.844 206.296 C 249.072 206.296,249.259 206.120,249.259 205.904 C 249.259 205.688,249.468 205.637,249.722 205.790 C 250.037 205.979,250.022 205.867,249.677 205.441 C 249.397 205.097,249.078 204.815,248.967 204.815 C 248.856 204.815,248.875 204.924,249.009 205.059 M218.314 231.667 C 218.315 238.593,218.365 241.374,218.425 237.847 C 218.486 234.320,218.486 228.653,218.425 225.254 C 218.364 221.855,218.314 224.741,218.314 231.667 M248.615 225.073 C 248.256 225.848,247.867 226.565,247.751 226.667 C 247.634 226.769,247.427 227.102,247.290 227.407 C 246.903 228.274,246.187 229.319,245.278 230.347 C 244.819 230.865,244.444 231.472,244.444 231.696 C 244.444 232.179,240.205 236.528,237.433 238.889 C 233.548 242.196,228.072 245.587,223.519 247.505 C 217.478 250.050,216.710 250.321,213.712 250.960 C 213.207 251.068,212.753 251.198,212.702 251.249 C 212.650 251.300,213.397 252.962,214.360 254.942 L 216.111 258.542 221.087 258.321 C 223.824 258.200,226.355 257.944,226.711 257.754 C 227.067 257.563,228.110 257.407,229.028 257.407 C 229.946 257.407,230.787 257.263,230.896 257.086 C 231.005 256.909,231.791 256.653,232.641 256.517 C 234.685 256.190,238.750 254.875,240.365 254.018 C 241.075 253.641,241.767 253.333,241.904 253.333 C 242.430 253.333,247.316 250.126,248.534 248.981 C 249.238 248.318,250.032 247.858,250.297 247.958 C 250.588 248.068,250.676 247.972,250.518 247.717 C 250.375 247.485,250.495 247.112,250.785 246.888 C 253.462 244.825,254.400 241.307,253.560 236.481 C 252.944 232.941,252.084 229.375,251.639 228.519 C 251.375 228.009,250.874 226.795,250.525 225.821 C 249.693 223.498,249.396 223.382,248.615 225.073 M304.194 228.762 C 304.328 228.896,304.252 229.230,304.026 229.503 C 303.722 229.869,303.723 230.000,304.029 230.000 C 304.257 230.000,304.444 229.823,304.444 229.608 C 304.444 229.392,304.609 229.317,304.811 229.442 C 305.021 229.572,305.083 229.423,304.956 229.093 C 304.835 228.777,304.559 228.519,304.343 228.519 C 304.127 228.519,304.060 228.628,304.194 228.762 M242.778 257.606 C 241.852 258.052,241.821 258.103,242.593 257.914 C 243.642 257.658,244.822 257.057,244.259 257.065 C 244.056 257.068,243.389 257.311,242.778 257.606 M251.712 262.792 C 251.585 263.123,251.496 263.672,251.513 264.012 C 251.531 264.352,251.692 264.138,251.871 263.537 C 252.221 262.368,252.097 261.790,251.712 262.792 M248.861 266.944 L 247.963 267.963 249.074 267.037 C 249.685 266.528,250.255 266.069,250.340 266.019 C 250.424 265.968,250.328 265.926,250.126 265.926 C 249.924 265.926,249.355 266.384,248.861 266.944 M245.463 268.932 C 244.699 269.319,244.074 269.714,244.074 269.810 C 244.074 270.079,246.045 269.182,246.653 268.635 C 247.335 268.023,247.185 268.060,245.463 268.932 M240.741 270.741 C 239.996 270.979,239.960 271.039,240.556 271.048 C 240.963 271.054,241.630 270.916,242.037 270.741 C 242.981 270.335,242.007 270.335,240.741 270.741 M247.037 273.195 C 242.080 275.924,232.027 277.111,224.542 275.851 C 221.579 275.352,229.554 284.590,233.816 286.593 L 235.445 287.359 235.692 290.439 C 236.024 294.577,237.708 296.004,240.037 294.119 C 240.841 293.468,240.890 293.196,240.805 289.860 C 240.750 287.704,240.858 286.296,241.079 286.296 C 241.574 286.296,244.503 283.371,245.157 282.222 C 246.918 279.133,249.259 273.732,249.259 272.760 C 249.259 272.056,249.022 272.102,247.037 273.195 " stroke="none" fill="#724304" fill-rule="evenodd"></path><path id="path1" d="M113.931 104.340 C 113.861 104.410,113.406 104.556,112.920 104.663 C 112.435 104.770,111.870 104.896,111.667 104.943 C 107.420 105.914,99.552 112.416,96.583 117.407 L 95.812 118.704 95.535 117.778 C 94.994 115.968,94.156 113.116,93.513 110.897 C 92.610 107.780,89.995 105.546,89.047 107.082 C 88.932 107.267,88.683 107.324,88.493 107.206 C 88.303 107.089,87.945 107.119,87.697 107.272 C 87.449 107.426,86.824 107.587,86.308 107.631 C 84.806 107.758,83.668 108.087,83.101 108.557 C 82.812 108.798,82.469 108.889,82.340 108.760 C 82.211 108.631,81.877 108.714,81.599 108.945 C 81.321 109.176,80.988 109.259,80.858 109.130 C 80.729 109.001,80.400 109.081,80.127 109.308 C 79.853 109.535,79.630 109.611,79.630 109.477 C 79.630 109.343,79.285 109.417,78.865 109.642 C 77.722 110.254,76.653 110.471,74.943 110.440 C 71.398 110.374,70.283 116.951,73.754 117.454 C 73.930 117.479,74.282 117.532,74.537 117.571 C 74.792 117.610,75.250 117.522,75.556 117.376 C 75.861 117.230,76.611 117.020,77.222 116.910 C 79.206 116.553,79.940 116.354,80.624 115.988 C 80.994 115.790,81.424 115.626,81.579 115.624 C 81.804 115.620,83.325 115.361,85.185 115.009 C 85.287 114.990,85.733 114.772,86.177 114.525 C 87.254 113.926,88.018 114.275,88.282 115.487 C 88.401 116.034,88.747 117.279,89.050 118.254 C 89.448 119.533,89.477 119.952,89.153 119.758 C 88.906 119.610,87.537 118.740,86.111 117.826 C 83.316 116.034,82.762 115.942,80.532 116.907 C 79.730 117.254,78.851 117.580,78.579 117.630 C 78.306 117.681,77.806 117.968,77.468 118.268 C 77.129 118.569,76.269 119.078,75.556 119.400 C 74.843 119.722,74.009 120.145,73.704 120.340 C 73.398 120.535,70.981 121.870,68.333 123.306 C 62.752 126.332,62.010 127.094,62.580 129.213 C 63.307 131.913,65.572 132.491,68.504 130.726 C 71.015 129.214,80.126 124.602,80.181 124.815 C 80.207 124.917,80.762 124.551,81.414 124.003 L 82.599 123.006 87.029 125.826 L 91.459 128.647 91.192 130.527 C 90.143 137.930,91.662 144.081,95.421 147.653 C 96.227 148.418,100.639 151.274,101.083 151.317 C 101.200 151.329,101.880 151.477,102.593 151.646 C 105.819 152.414,109.236 152.419,112.778 151.660 C 113.389 151.529,114.229 151.383,114.645 151.336 C 115.061 151.289,115.603 151.126,115.849 150.973 C 116.095 150.821,116.451 150.793,116.641 150.910 C 116.831 151.027,117.095 150.947,117.228 150.732 C 117.361 150.516,117.777 150.438,118.152 150.557 C 118.527 150.676,118.971 150.558,119.139 150.294 C 119.307 150.030,120.861 149.081,122.593 148.183 C 124.324 147.286,126.188 146.203,126.734 145.776 C 127.280 145.349,128.318 144.583,129.040 144.074 C 130.288 143.194,134.290 138.203,136.311 135.006 C 143.111 124.248,134.070 106.365,120.926 104.575 C 119.371 104.364,114.086 104.186,113.931 104.340 M122.374 105.508 C 122.596 105.682,123.278 105.942,123.889 106.088 C 126.688 106.752,132.870 111.615,134.444 114.391 C 134.750 114.930,135.100 115.454,135.223 115.556 C 135.463 115.755,136.255 117.440,137.226 119.815 C 137.727 121.042,138.122 123.074,138.235 125.000 C 138.303 126.154,137.659 130.615,137.307 131.439 C 137.079 131.972,136.881 132.605,136.867 132.847 C 136.800 134.045,129.778 142.707,127.616 144.259 C 127.049 144.667,126.353 145.220,126.070 145.489 C 125.787 145.759,125.553 145.842,125.550 145.675 C 125.547 145.507,125.422 145.547,125.272 145.763 C 124.178 147.339,116.592 150.364,111.667 151.187 C 108.395 151.734,102.387 151.400,101.616 150.628 C 101.474 150.486,101.139 150.370,100.871 150.370 C 98.672 150.370,92.593 144.422,92.593 142.270 C 92.593 141.860,92.434 141.427,92.239 141.307 C 91.916 141.107,91.243 137.099,91.352 136.020 C 91.378 135.766,91.500 134.266,91.624 132.686 C 91.748 131.107,91.892 129.499,91.943 129.113 C 92.014 128.582,90.950 127.706,87.593 125.529 C 82.772 122.403,82.226 122.218,81.111 123.333 C 80.704 123.741,80.370 123.896,80.370 123.677 C 80.370 123.459,80.108 123.542,79.788 123.862 C 79.468 124.183,78.980 124.444,78.704 124.444 C 78.427 124.444,77.939 124.706,77.619 125.026 C 77.299 125.347,77.037 125.501,77.037 125.370 C 77.037 125.239,76.775 125.394,76.455 125.714 C 76.135 126.034,75.677 126.297,75.437 126.298 C 75.196 126.299,73.083 127.389,70.741 128.720 C 65.275 131.826,62.963 131.667,62.963 128.185 C 62.963 127.371,64.578 125.556,65.303 125.556 C 65.591 125.556,66.224 125.248,66.709 124.873 C 67.195 124.497,68.384 123.891,69.352 123.526 C 70.319 123.161,71.111 122.708,71.111 122.520 C 71.111 122.332,71.278 122.282,71.481 122.407 C 71.685 122.533,71.852 122.473,71.852 122.273 C 71.852 122.073,72.437 121.716,73.152 121.480 C 73.866 121.244,74.658 120.854,74.911 120.612 C 75.164 120.370,76.079 119.858,76.944 119.474 C 77.810 119.090,78.519 118.635,78.519 118.462 C 78.519 118.290,78.644 118.182,78.796 118.224 C 78.949 118.266,79.636 118.001,80.322 117.636 C 82.596 116.426,83.065 116.516,86.725 118.867 C 90.819 121.497,90.677 121.555,89.479 117.746 C 88.951 116.068,88.519 114.389,88.519 114.014 C 88.519 113.043,89.337 112.895,78.889 115.754 C 76.954 116.284,75.060 116.783,74.681 116.864 C 73.613 117.091,71.887 115.168,72.110 114.001 C 72.297 113.023,74.444 110.367,74.444 111.113 C 74.444 111.343,74.736 111.441,75.093 111.330 C 75.449 111.219,76.407 111.025,77.222 110.898 C 78.037 110.771,78.787 110.558,78.889 110.426 C 78.991 110.294,79.407 110.135,79.815 110.074 C 80.222 110.012,81.972 109.557,83.704 109.062 C 85.435 108.566,87.519 108.056,88.333 107.927 C 89.148 107.799,90.065 107.650,90.370 107.596 C 91.048 107.476,92.593 108.822,92.593 109.532 C 92.593 110.076,93.558 113.382,94.081 114.630 C 94.251 115.037,94.587 116.246,94.825 117.316 C 95.378 119.792,95.670 119.946,96.690 118.295 C 97.146 117.559,97.868 116.569,98.296 116.096 C 98.724 115.623,99.574 114.619,100.185 113.864 C 102.333 111.211,104.626 109.199,106.389 108.418 C 106.949 108.170,107.407 107.856,107.407 107.720 C 107.407 107.445,111.677 105.780,113.704 105.265 C 115.244 104.873,121.796 105.057,122.374 105.508 M108.670 116.898 C 105.784 117.629,104.011 118.264,103.541 118.734 C 103.223 119.052,102.963 119.205,102.963 119.074 C 102.963 118.943,102.731 119.056,102.448 119.325 C 102.165 119.595,101.466 120.148,100.895 120.556 C 100.324 120.963,99.597 121.599,99.280 121.969 C 98.963 122.339,98.276 123.127,97.752 123.720 C 97.229 124.313,96.585 125.260,96.320 125.825 C 96.056 126.390,95.690 127.145,95.507 127.503 C 93.556 131.328,95.941 138.508,99.334 139.022 C 99.598 139.062,100.023 139.225,100.278 139.384 C 100.532 139.543,100.741 139.598,100.741 139.505 C 100.741 139.413,101.335 139.471,102.062 139.635 C 103.088 139.867,103.430 139.810,103.595 139.380 C 103.768 138.928,103.867 138.918,104.133 139.321 C 104.394 139.717,104.559 139.683,104.970 139.147 C 105.251 138.780,105.540 138.656,105.612 138.872 C 105.764 139.329,108.148 138.553,108.148 138.045 C 108.148 137.874,108.287 137.820,108.457 137.925 C 109.233 138.404,113.194 134.931,115.206 132.007 C 118.950 126.565,117.653 118.622,112.857 117.614 C 112.610 117.562,112.157 117.423,111.852 117.306 C 111.169 117.043,109.129 116.781,108.670 116.898 M111.709 117.882 C 111.856 118.028,112.223 118.148,112.527 118.148 C 115.354 118.148,117.515 123.157,116.566 127.511 C 115.653 131.699,110.347 137.550,108.107 136.839 C 107.544 136.660,107.305 136.794,107.153 137.374 C 106.950 138.152,106.658 138.289,105.463 138.168 C 105.106 138.131,104.815 138.285,104.815 138.508 C 104.815 138.796,104.605 138.802,104.097 138.531 C 103.588 138.258,103.303 138.268,103.121 138.563 C 102.275 139.932,97.884 138.147,96.430 135.845 C 93.171 130.682,99.128 119.721,105.926 118.370 C 107.772 118.003,108.621 117.799,108.723 117.697 C 108.945 117.475,111.458 117.630,111.709 117.882 M137.487 134.143 C 137.239 134.390,137.037 134.872,137.037 135.214 C 137.037 137.253,133.582 142.190,130.594 144.421 L 128.889 145.693 128.889 180.209 C 128.889 207.865,128.794 214.803,128.413 215.119 C 128.151 215.336,126.943 215.565,125.728 215.627 L 123.519 215.741 123.519 217.222 L 123.519 218.704 142.407 218.704 L 161.296 218.704 161.296 217.222 L 161.296 215.741 158.706 215.556 C 155.391 215.319,155.653 216.994,155.599 195.648 L 155.556 178.148 164.030 178.148 L 172.505 178.148 172.919 179.794 C 173.527 182.208,173.461 254.132,172.849 255.926 C 172.416 257.198,172.363 257.226,170.000 257.407 C 167.597 257.592,167.592 257.595,167.476 258.800 L 167.360 260.007 186.550 259.911 L 205.741 259.815 205.741 258.704 C 205.741 257.600,205.726 257.592,203.435 257.483 C 199.766 257.307,200.000 258.657,200.000 237.695 L 200.000 219.630 208.889 219.630 L 217.778 219.630 217.778 232.049 C 217.778 245.855,217.710 245.514,220.205 244.324 C 220.950 243.969,221.542 243.872,221.672 244.083 C 221.804 244.296,222.438 244.204,223.261 243.852 C 224.014 243.529,224.830 243.230,225.075 243.188 C 225.320 243.145,225.833 242.827,226.215 242.481 C 226.597 242.135,227.085 241.852,227.299 241.852 C 227.512 241.852,227.893 241.604,228.145 241.300 C 228.396 240.997,228.741 240.834,228.909 240.939 C 229.078 241.043,229.732 240.624,230.362 240.009 C 230.992 239.393,231.675 238.889,231.880 238.889 C 232.332 238.889,241.711 229.651,243.306 227.634 C 244.375 226.283,244.445 225.999,244.456 223.005 L 244.467 219.815 246.193 218.519 C 247.142 217.806,248.035 217.258,248.179 217.302 C 248.322 217.345,248.882 216.970,249.424 216.468 C 249.965 215.966,250.558 215.556,250.741 215.556 C 250.925 215.556,251.208 215.347,251.370 215.093 C 251.785 214.444,253.953 212.963,254.487 212.963 C 254.731 212.963,255.488 212.537,256.171 212.017 C 256.853 211.496,257.579 211.173,257.783 211.299 C 257.987 211.425,258.267 211.226,258.406 210.857 C 258.721 210.017,259.635 209.286,260.390 209.271 C 260.707 209.265,261.531 208.676,262.222 207.963 C 262.913 207.250,263.797 206.667,264.186 206.667 C 264.575 206.667,265.525 206.167,266.296 205.556 C 267.068 204.944,267.865 204.444,268.067 204.444 C 268.269 204.444,269.432 203.778,270.653 202.963 C 271.873 202.148,273.021 201.481,273.205 201.481 C 273.389 201.481,273.949 201.194,274.451 200.843 C 274.953 200.491,275.674 200.156,276.054 200.098 C 276.433 200.040,277.166 199.661,277.681 199.256 C 278.197 198.850,278.921 198.519,279.291 198.519 C 279.661 198.519,280.097 198.279,280.261 197.987 C 280.424 197.694,281.037 197.368,281.621 197.262 C 282.205 197.156,282.974 196.807,283.328 196.486 C 283.683 196.165,284.369 195.827,284.853 195.733 C 285.337 195.640,286.151 195.257,286.663 194.882 C 287.174 194.507,287.926 194.103,288.333 193.983 C 288.741 193.863,290.241 193.322,291.667 192.781 C 293.093 192.240,294.540 191.738,294.883 191.666 C 295.227 191.593,295.852 191.349,296.272 191.124 C 296.693 190.899,297.037 190.808,297.037 190.922 C 297.037 191.037,297.522 190.879,298.115 190.573 C 298.708 190.266,299.775 189.943,300.486 189.855 C 301.197 189.767,302.129 189.507,302.556 189.279 C 302.984 189.050,303.333 188.934,303.333 189.022 C 303.333 189.110,303.958 189.022,304.722 188.828 C 306.658 188.335,307.704 188.149,309.630 187.958 C 311.808 187.741,311.850 187.741,313.148 187.940 C 313.759 188.034,314.843 188.188,315.556 188.283 C 316.776 188.445,318.755 189.256,321.296 190.635 C 323.726 191.954,327.784 196.947,328.005 198.889 C 328.039 199.194,328.183 200.194,328.323 201.111 C 328.785 204.125,328.516 205.696,326.911 209.360 C 326.622 210.017,326.108 211.333,325.768 212.282 C 325.427 213.232,324.907 214.102,324.611 214.215 C 324.316 214.328,324.071 214.635,324.067 214.896 C 324.056 215.580,321.003 218.691,317.583 221.501 C 314.061 224.395,313.651 224.666,313.787 224.009 C 313.845 223.732,313.567 223.519,313.148 223.519 C 312.689 223.519,312.367 223.801,312.301 224.262 C 312.191 225.026,310.140 226.667,309.295 226.667 C 309.034 226.667,308.414 226.987,307.916 227.378 C 307.286 227.874,306.619 228.040,305.715 227.928 C 304.671 227.799,304.243 227.957,303.516 228.742 C 302.755 229.563,302.411 229.678,301.326 229.475 C 300.286 229.279,299.967 229.369,299.660 229.943 C 299.224 230.757,298.485 231.108,296.719 231.337 C 296.035 231.426,295.146 231.675,294.743 231.890 C 294.340 232.106,293.929 232.201,293.829 232.101 C 293.730 232.001,293.119 232.086,292.472 232.290 C 291.825 232.494,290.796 232.729,290.185 232.812 C 289.574 232.896,288.741 233.009,288.333 233.064 C 287.926 233.119,287.387 232.911,287.136 232.601 C 286.737 232.109,286.650 232.139,286.453 232.836 C 286.188 233.777,284.951 234.221,284.665 233.478 C 284.389 232.759,283.442 232.835,283.007 233.611 C 282.767 234.041,282.106 234.294,281.045 234.362 C 277.836 234.567,275.345 234.793,274.259 234.977 C 271.892 235.378,265.799 235.489,264.899 235.147 C 263.327 234.549,263.073 235.292,264.163 237.305 C 264.689 238.278,265.235 239.853,265.376 240.804 C 265.903 244.374,266.402 244.486,277.963 243.604 C 278.835 243.537,279.702 243.702,280.069 244.004 C 280.777 244.585,281.629 244.253,281.343 243.508 C 281.194 243.117,281.380 243.095,282.252 243.399 C 283.068 243.684,283.494 243.661,283.918 243.310 C 284.230 243.050,285.019 242.778,285.669 242.706 C 286.320 242.633,287.519 242.499,288.333 242.407 C 289.148 242.316,290.315 242.141,290.926 242.019 C 291.537 241.897,292.370 241.767,292.778 241.729 C 293.185 241.692,293.727 241.528,293.981 241.365 C 294.236 241.201,294.600 241.163,294.789 241.280 C 294.979 241.398,295.239 241.324,295.367 241.117 C 295.495 240.910,296.017 240.741,296.528 240.741 C 297.038 240.741,297.737 240.592,298.080 240.410 C 298.423 240.229,299.311 239.999,300.054 239.901 C 300.796 239.802,301.627 239.583,301.900 239.414 C 302.174 239.246,302.900 239.087,303.513 239.061 C 304.127 239.036,305.005 238.814,305.463 238.569 C 305.921 238.323,306.296 238.230,306.296 238.363 C 306.296 238.495,306.718 238.328,307.233 237.990 C 307.748 237.653,308.321 237.470,308.506 237.585 C 308.692 237.700,308.979 237.571,309.144 237.299 C 309.309 237.027,310.444 236.413,311.667 235.934 C 312.889 235.456,314.114 234.890,314.389 234.678 C 314.664 234.466,315.131 234.256,315.427 234.213 C 315.723 234.169,316.414 233.833,316.964 233.465 C 317.911 232.832,318.096 232.750,318.822 232.639 C 318.989 232.613,319.825 231.994,320.680 231.262 C 321.535 230.531,322.940 229.560,323.802 229.104 C 324.665 228.649,325.572 227.874,325.819 227.382 C 326.066 226.891,326.500 226.487,326.782 226.485 C 327.065 226.483,328.165 225.398,329.228 224.075 C 330.291 222.751,331.400 221.535,331.692 221.371 C 331.983 221.208,332.222 220.802,332.222 220.468 C 332.222 220.135,332.529 219.518,332.903 219.098 C 333.277 218.677,333.811 217.750,334.089 217.037 C 334.368 216.324,334.799 215.574,335.048 215.370 C 335.706 214.833,337.457 210.293,337.233 209.708 C 337.128 209.436,337.274 208.765,337.556 208.217 C 338.881 205.653,337.603 197.183,335.334 193.482 C 332.488 188.842,327.586 183.704,326.004 183.704 C 325.812 183.704,325.252 183.386,324.758 182.998 C 323.707 182.171,318.050 179.927,316.574 179.751 C 316.014 179.684,315.014 179.541,314.352 179.432 C 312.680 179.157,307.085 179.164,305.741 179.442 C 305.130 179.569,304.202 179.718,303.679 179.773 C 303.156 179.828,302.529 179.996,302.286 180.146 C 302.010 180.316,301.603 179.982,301.200 179.254 C 299.941 176.980,297.800 174.354,296.318 173.264 C 295.491 172.656,294.815 172.001,294.815 171.808 C 294.815 171.616,294.523 171.355,294.167 171.228 C 293.810 171.102,293.256 170.774,292.935 170.501 C 289.536 167.599,277.950 165.057,272.778 166.079 C 269.330 166.760,268.653 166.939,267.802 167.395 C 267.381 167.620,267.032 167.673,267.025 167.513 C 267.019 167.353,266.810 167.490,266.561 167.816 C 266.312 168.143,265.692 168.538,265.184 168.694 C 264.675 168.849,263.968 169.233,263.611 169.546 C 263.255 169.859,262.963 169.992,262.963 169.841 C 262.963 169.691,262.330 170.069,261.557 170.681 C 260.784 171.294,259.832 171.766,259.441 171.731 C 258.998 171.691,258.677 171.944,258.584 172.407 C 258.456 173.046,257.627 173.837,257.037 173.884 C 256.533 173.925,254.444 175.754,254.444 176.156 C 254.444 176.409,254.124 176.718,253.733 176.843 C 253.341 176.967,252.435 177.716,251.720 178.508 C 251.005 179.300,250.075 180.132,249.654 180.357 C 249.233 180.582,248.889 180.921,248.889 181.108 C 248.889 181.296,247.931 182.387,246.759 183.531 L 244.630 185.612 244.522 182.625 C 244.377 178.581,244.619 178.211,247.504 178.073 L 249.815 177.963 249.815 176.481 L 249.815 175.000 230.926 175.000 L 212.037 175.000 212.037 176.481 L 212.037 177.963 214.615 178.148 C 217.950 178.388,217.697 176.791,217.741 197.870 L 217.778 215.556 209.074 215.556 L 200.370 215.556 200.348 210.463 C 200.174 171.601,200.445 137.905,200.936 137.154 C 201.371 136.492,201.885 136.312,203.607 136.222 C 205.717 136.112,205.742 136.098,205.857 134.907 L 205.973 133.704 186.852 133.704 L 167.731 133.704 167.847 134.907 C 167.962 136.103,167.979 136.112,170.291 136.297 C 173.515 136.553,173.321 135.309,173.328 155.833 L 173.333 174.074 164.428 174.074 L 155.523 174.074 155.632 155.797 C 155.756 134.951,155.508 136.389,159.013 136.221 C 161.279 136.112,161.296 136.103,161.296 135.000 L 161.296 133.889 149.616 133.791 C 140.841 133.718,137.824 133.805,137.487 134.143 M160.741 135.000 C 160.741 135.879,160.634 135.926,158.640 135.926 C 154.915 135.926,155.185 134.375,155.185 155.798 L 155.185 174.444 164.630 174.444 L 174.074 174.444 174.074 156.713 C 174.074 134.844,174.210 135.556,170.018 135.556 C 168.765 135.556,168.519 135.434,168.519 134.815 C 168.519 134.084,168.765 134.074,187.037 134.074 C 205.309 134.074,205.556 134.084,205.556 134.815 C 205.556 135.464,205.309 135.556,203.551 135.556 C 201.766 135.556,201.442 135.680,200.583 136.702 L 199.618 137.848 199.717 176.980 L 199.815 216.111 208.981 216.210 L 218.148 216.309 218.148 197.599 C 218.148 175.981,218.397 177.407,214.630 177.407 C 212.704 177.407,212.593 177.357,212.593 176.481 L 212.593 175.556 231.111 175.556 L 249.630 175.556 249.630 176.481 C 249.630 177.357,249.519 177.407,247.593 177.407 C 244.410 177.407,244.074 177.937,244.074 182.963 C 244.074 185.204,244.150 187.037,244.242 187.037 C 244.532 187.037,246.296 185.167,246.296 184.861 C 246.296 184.701,246.713 184.347,247.222 184.074 C 247.731 183.802,248.148 183.434,248.148 183.258 C 248.148 182.905,251.714 179.375,254.995 176.481 C 256.149 175.463,257.319 174.421,257.594 174.167 C 257.870 173.912,258.377 173.704,258.720 173.704 C 259.173 173.704,259.290 173.489,259.142 172.926 C 258.978 172.296,259.076 172.185,259.661 172.338 C 260.058 172.442,260.598 172.312,260.859 172.051 C 261.121 171.789,262.493 170.943,263.908 170.170 C 265.324 169.398,266.565 168.668,266.667 168.548 C 267.905 167.088,276.578 166.098,282.037 166.792 C 283.560 166.986,291.940 170.355,292.448 170.978 C 292.674 171.255,293.032 171.481,293.242 171.481 C 293.453 171.481,294.185 171.982,294.868 172.594 C 295.552 173.206,296.278 173.847,296.481 174.020 C 297.632 174.995,299.599 177.441,300.399 178.889 C 301.383 180.672,302.200 180.866,305.741 180.157 C 311.189 179.067,320.402 180.634,324.444 183.339 C 324.954 183.679,326.111 184.443,327.016 185.035 C 330.360 187.221,333.820 191.342,335.383 195.000 C 335.731 195.815,336.190 196.815,336.403 197.222 C 336.615 197.630,336.837 198.296,336.896 198.704 C 336.955 199.111,337.114 200.194,337.249 201.111 C 337.630 203.697,337.410 206.957,336.746 208.573 C 336.525 209.112,336.439 209.649,336.555 209.765 C 336.879 210.089,335.144 214.548,334.417 215.260 C 334.063 215.607,333.578 216.482,333.339 217.204 C 333.101 217.927,332.772 218.519,332.609 218.519 C 332.446 218.519,332.110 219.007,331.863 219.603 C 331.616 220.199,331.179 220.778,330.892 220.888 C 330.605 220.998,330.363 221.301,330.355 221.562 C 330.346 221.823,329.846 222.446,329.244 222.946 C 328.641 223.445,328.148 223.995,328.148 224.167 C 328.148 224.486,327.206 225.383,325.134 227.037 C 324.496 227.546,323.587 228.338,323.115 228.796 C 322.642 229.255,322.084 229.630,321.873 229.630 C 321.516 229.630,321.206 229.853,319.171 231.574 C 318.750 231.931,318.097 232.222,317.721 232.222 C 317.345 232.222,317.037 232.376,317.037 232.564 C 317.037 232.752,316.412 233.106,315.648 233.351 C 314.884 233.597,314.009 234.007,313.704 234.263 C 313.398 234.519,312.106 235.104,310.833 235.562 C 309.560 236.020,308.519 236.550,308.519 236.738 C 308.519 236.927,308.352 236.978,308.149 236.852 C 307.945 236.727,307.408 236.883,306.955 237.201 C 306.502 237.518,305.762 237.778,305.310 237.778 C 304.858 237.778,304.383 237.947,304.256 238.154 C 304.128 238.361,303.885 238.446,303.718 238.342 C 303.550 238.238,302.686 238.415,301.799 238.735 C 300.911 239.054,299.625 239.390,298.941 239.481 C 298.257 239.572,297.404 239.804,297.045 239.995 C 296.687 240.187,296.303 240.253,296.192 240.142 C 296.080 240.031,295.660 240.116,295.257 240.332 C 294.854 240.547,293.882 240.821,293.096 240.940 C 292.310 241.059,291.333 241.227,290.926 241.315 C 290.519 241.402,288.727 241.668,286.944 241.906 C 285.162 242.143,283.704 242.458,283.704 242.605 C 283.704 242.752,282.950 242.787,282.030 242.683 C 280.513 242.512,280.379 242.560,280.601 243.192 C 280.825 243.829,280.793 243.839,280.226 243.308 C 279.728 242.842,279.153 242.781,277.303 243.000 C 268.410 244.049,266.471 243.692,266.047 240.926 C 265.922 240.111,265.427 238.658,264.947 237.697 C 263.856 235.515,263.853 235.544,265.159 235.918 C 266.172 236.209,267.787 236.168,273.055 235.720 C 277.824 235.314,279.530 235.175,281.262 235.051 C 282.510 234.963,283.240 234.703,283.591 234.222 C 283.974 233.699,284.175 233.639,284.389 233.984 C 284.666 234.433,285.845 234.416,287.778 233.933 C 288.287 233.806,289.287 233.623,290.000 233.525 C 290.713 233.427,292.296 233.080,293.519 232.753 C 294.741 232.427,296.407 232.016,297.222 231.841 C 300.411 231.153,300.690 231.040,300.490 230.517 C 300.380 230.233,300.476 230.000,300.701 230.000 C 300.927 230.000,301.111 230.147,301.111 230.327 C 301.111 230.894,303.883 229.730,304.009 229.110 C 304.141 228.454,304.846 228.330,305.389 228.866 C 305.609 229.084,306.712 228.739,308.333 227.946 C 309.759 227.248,311.134 226.675,311.389 226.672 C 311.644 226.669,311.852 226.523,311.852 226.347 C 311.852 226.172,312.685 225.632,313.704 225.149 C 314.722 224.665,315.556 224.142,315.556 223.987 C 315.556 223.831,315.730 223.704,315.943 223.704 C 316.156 223.704,316.710 223.329,317.175 222.870 C 317.640 222.412,318.563 221.626,319.228 221.123 C 320.922 219.842,322.219 218.607,322.238 218.258 C 322.247 218.096,322.747 217.554,323.349 217.054 C 323.952 216.555,324.444 215.938,324.444 215.684 C 324.444 215.430,324.683 215.088,324.975 214.925 C 325.267 214.762,326.348 212.462,327.376 209.814 C 329.341 204.758,329.388 204.390,328.693 199.630 C 327.732 193.044,318.708 186.793,310.851 187.271 C 307.442 187.478,306.286 187.644,305.131 188.091 C 304.591 188.300,304.068 188.389,303.967 188.288 C 303.866 188.187,303.165 188.363,302.408 188.680 C 301.651 188.996,300.912 189.180,300.764 189.088 C 300.510 188.932,299.314 189.335,290.741 192.467 C 288.806 193.174,285.716 194.491,283.875 195.395 C 282.034 196.298,280.325 197.037,280.079 197.037 C 279.832 197.037,279.630 197.196,279.630 197.390 C 279.630 197.584,279.048 197.903,278.338 198.100 C 277.628 198.296,276.782 198.720,276.460 199.043 C 276.137 199.366,275.552 199.630,275.159 199.630 C 274.766 199.630,274.444 199.793,274.444 199.993 C 274.444 200.193,274.035 200.459,273.534 200.585 C 273.033 200.711,272.429 201.047,272.192 201.333 C 271.955 201.618,271.525 201.852,271.235 201.852 C 270.743 201.852,270.361 202.099,269.088 203.241 C 268.804 203.495,268.432 203.704,268.262 203.704 C 267.790 203.704,265.137 205.181,264.545 205.773 C 264.257 206.061,263.785 206.296,263.496 206.296 C 263.208 206.296,262.622 206.588,262.195 206.944 C 261.768 207.301,261.081 207.879,260.667 208.229 C 260.253 208.578,259.432 209.078,258.842 209.339 C 258.185 209.630,257.845 210.011,257.964 210.322 C 258.101 210.680,257.942 210.773,257.426 210.638 C 256.998 210.526,256.344 210.748,255.857 211.170 C 255.398 211.569,254.240 212.288,253.283 212.768 C 252.326 213.249,251.237 213.918,250.864 214.256 C 249.280 215.686,247.936 216.666,247.555 216.666 C 247.331 216.666,246.624 217.167,245.984 217.778 C 245.345 218.389,244.653 218.889,244.448 218.889 C 244.224 218.889,244.074 220.243,244.074 222.271 C 244.074 226.503,243.981 226.660,238.205 232.222 C 233.039 237.196,227.757 240.793,222.738 242.755 C 217.628 244.753,218.148 246.011,218.148 231.667 L 218.148 219.259 208.947 219.259 L 199.746 219.259 199.504 225.648 C 199.134 235.409,199.215 254.454,199.633 255.960 C 200.070 257.534,201.166 258.148,203.536 258.148 C 204.938 258.148,205.185 258.259,205.185 258.889 C 205.185 259.620,204.938 259.630,186.481 259.630 C 168.025 259.630,167.778 259.620,167.778 258.889 C 167.778 258.237,168.025 258.148,169.832 258.148 C 171.581 258.148,172.023 258.001,172.799 257.165 L 173.710 256.181 173.700 217.941 C 173.693 191.547,173.566 179.346,173.290 178.554 L 172.890 177.407 164.038 177.407 L 155.185 177.407 155.185 196.111 C 155.185 217.722,154.937 216.296,158.704 216.296 C 160.630 216.296,160.741 216.347,160.741 217.222 L 160.741 218.148 142.222 218.148 L 123.704 218.148 123.704 217.222 C 123.704 216.338,123.803 216.296,125.917 216.296 C 129.759 216.296,129.429 219.587,129.545 180.149 L 129.645 146.006 132.756 142.895 C 135.792 139.858,137.778 136.646,137.778 134.769 C 137.778 134.104,138.279 134.074,149.259 134.074 L 160.741 134.074 160.741 135.000 M277.694 173.903 C 277.638 173.954,276.516 174.076,275.201 174.173 C 273.885 174.271,272.746 174.539,272.670 174.768 C 272.593 174.998,272.276 175.185,271.965 175.185 C 271.153 175.185,266.869 177.560,265.661 178.681 C 265.098 179.203,264.464 179.630,264.252 179.630 C 264.040 179.630,263.627 179.963,263.333 180.370 C 263.040 180.778,262.663 181.111,262.496 181.111 C 262.147 181.111,261.484 181.721,256.667 186.476 C 252.855 190.239,248.889 194.412,248.889 194.660 C 248.889 194.827,248.397 195.416,246.660 197.328 C 246.053 197.997,245.556 198.674,245.556 198.832 C 245.556 198.990,245.217 199.483,244.803 199.928 C 244.125 200.655,244.060 201.143,244.155 204.816 L 244.259 208.896 245.605 208.174 C 247.271 207.280,248.889 205.810,248.889 205.190 C 248.889 204.818,249.001 204.817,249.444 205.185 C 249.750 205.439,250.000 205.492,250.000 205.303 C 250.000 205.115,250.832 204.511,251.849 203.962 C 254.031 202.783,255.603 201.488,255.349 201.077 C 255.250 200.916,255.620 200.816,256.173 200.855 C 256.882 200.905,257.302 200.684,257.599 200.103 C 257.922 199.474,258.123 199.382,258.455 199.714 C 258.787 200.046,258.889 200.043,258.889 199.704 C 258.889 199.459,259.222 199.259,259.630 199.259 C 260.037 199.259,260.370 199.131,260.370 198.974 C 260.370 198.817,261.120 198.279,262.037 197.778 C 262.954 197.277,263.704 196.739,263.704 196.582 C 263.704 196.425,264.025 196.296,264.418 196.296 C 264.811 196.296,265.360 196.068,265.639 195.790 C 265.918 195.511,266.513 195.166,266.962 195.024 C 267.411 194.881,267.778 194.609,267.778 194.419 C 267.778 194.230,268.086 194.074,268.462 194.074 C 268.838 194.074,269.526 193.744,269.991 193.341 C 270.456 192.938,270.967 192.689,271.127 192.788 C 271.287 192.887,271.474 192.835,271.542 192.674 C 271.714 192.268,274.796 190.525,275.926 190.194 C 276.435 190.045,278.352 189.202,280.185 188.321 C 282.019 187.441,285.019 186.200,286.852 185.564 C 288.685 184.928,290.733 184.166,291.401 183.870 C 292.070 183.575,292.862 183.333,293.161 183.333 C 294.332 183.333,293.686 182.172,290.757 179.013 C 290.159 178.368,289.328 177.732,288.909 177.599 C 288.491 177.466,288.148 177.220,288.148 177.051 C 288.148 176.154,278.431 173.227,277.694 173.903 M284.640 175.929 C 289.208 177.743,294.216 182.223,292.331 182.810 C 291.966 182.924,291.356 183.185,290.977 183.390 C 290.597 183.595,290.014 183.823,289.680 183.897 C 289.347 183.971,288.160 184.374,287.042 184.793 C 285.925 185.213,284.986 185.556,284.956 185.556 C 284.926 185.556,284.807 185.195,284.692 184.754 C 284.439 183.789,283.252 184.485,283.421 185.499 C 283.477 185.836,283.205 186.145,282.778 186.229 C 282.370 186.308,281.721 186.647,281.335 186.983 C 280.666 187.564,280.653 187.554,281.058 186.782 C 281.337 186.250,281.356 185.892,281.112 185.741 C 280.460 185.338,279.933 185.977,280.162 186.892 C 280.338 187.591,280.238 187.778,279.687 187.778 C 279.303 187.778,278.554 188.120,278.022 188.538 C 277.491 188.956,276.729 189.361,276.330 189.438 C 275.930 189.515,275.218 189.784,274.746 190.037 C 274.275 190.289,273.806 190.492,273.704 190.487 C 273.602 190.482,272.897 190.870,272.137 191.350 C 271.377 191.830,270.557 192.222,270.314 192.222 C 270.072 192.222,269.583 192.485,269.228 192.806 C 268.874 193.127,268.306 193.430,267.966 193.480 C 267.626 193.530,267.236 193.726,267.100 193.915 C 266.773 194.368,265.744 194.999,263.704 195.995 C 262.787 196.442,261.317 197.350,260.438 198.013 C 259.482 198.732,258.603 199.126,258.254 198.993 C 257.910 198.860,257.463 199.052,257.165 199.460 C 256.887 199.841,256.286 200.159,255.830 200.169 C 255.373 200.178,255.000 200.297,255.000 200.433 C 255.000 200.813,253.248 202.593,252.874 202.593 C 252.692 202.593,252.013 202.969,251.364 203.428 C 250.716 203.888,249.852 204.318,249.444 204.383 C 249.037 204.449,248.189 205.073,247.560 205.770 C 246.931 206.467,246.277 207.037,246.108 207.037 C 245.938 207.037,245.494 207.313,245.122 207.650 C 244.470 208.240,244.444 208.129,244.444 204.737 C 244.444 200.948,244.459 200.911,247.101 198.018 C 247.677 197.388,248.148 196.740,248.148 196.578 C 248.148 196.416,248.898 195.565,249.815 194.687 C 250.731 193.809,251.481 192.885,251.481 192.634 C 251.481 192.384,251.649 192.282,251.854 192.409 C 252.060 192.536,252.342 192.337,252.482 191.968 C 253.102 190.337,266.231 178.459,266.530 179.259 C 266.568 179.361,266.961 178.985,267.404 178.422 C 267.846 177.860,268.351 177.489,268.525 177.597 C 268.700 177.705,268.990 177.532,269.169 177.212 C 269.348 176.892,269.947 176.582,270.501 176.523 C 271.055 176.464,272.006 176.048,272.614 175.598 C 273.222 175.149,273.881 174.881,274.079 175.003 C 274.277 175.125,274.696 175.081,275.010 174.905 C 276.343 174.159,281.586 174.717,284.640 175.929 M247.018 226.204 C 245.934 227.986,244.578 230.024,244.005 230.733 C 243.432 231.441,242.963 232.126,242.963 232.254 C 242.963 232.515,239.178 236.433,238.889 236.471 C 238.787 236.484,238.003 237.167,237.146 237.990 C 236.289 238.812,234.705 240.074,233.627 240.794 C 230.861 242.642,227.645 244.629,227.416 244.632 C 227.309 244.633,226.612 245.013,225.865 245.476 C 225.119 245.939,224.369 246.287,224.198 246.250 C 224.028 246.212,222.768 246.708,221.397 247.350 C 220.026 247.993,218.756 248.519,218.574 248.519 C 218.391 248.519,217.487 248.853,216.564 249.261 C 215.641 249.669,214.345 250.047,213.683 250.101 C 211.587 250.271,211.475 251.868,213.352 254.815 C 213.547 255.120,214.117 256.223,214.619 257.266 C 215.508 259.110,217.643 260.214,218.864 259.460 C 219.029 259.358,220.794 259.182,222.787 259.069 C 224.779 258.955,226.592 258.748,226.816 258.608 C 227.039 258.468,227.972 258.307,228.889 258.250 C 229.806 258.194,230.806 258.035,231.111 257.899 C 231.417 257.763,232.000 257.632,232.407 257.609 C 232.815 257.586,233.356 257.438,233.611 257.281 C 233.866 257.123,234.074 257.091,234.074 257.210 C 234.074 257.329,234.574 257.168,235.185 256.852 C 235.796 256.536,236.296 256.398,236.296 256.546 C 236.296 256.694,236.496 256.615,236.741 256.370 C 236.985 256.126,237.407 255.926,237.679 255.926 C 237.950 255.926,238.792 255.654,239.549 255.321 C 240.306 254.988,241.176 254.682,241.481 254.642 C 241.787 254.602,243.023 253.875,244.228 253.025 C 245.433 252.176,246.572 251.481,246.758 251.481 C 246.945 251.481,247.809 250.898,248.680 250.185 C 249.550 249.472,250.450 248.889,250.681 248.889 C 250.912 248.889,251.343 248.311,251.638 247.604 C 251.933 246.897,252.739 245.755,253.428 245.066 C 254.688 243.806,255.393 238.086,254.441 236.852 C 254.284 236.648,254.061 235.731,253.946 234.815 C 253.611 232.145,253.068 229.996,252.214 227.963 C 252.043 227.556,251.704 226.556,251.460 225.741 C 250.368 222.086,249.465 222.180,247.018 226.204 M250.525 225.821 C 250.874 226.795,251.375 228.009,251.639 228.519 C 252.084 229.375,252.944 232.941,253.560 236.481 C 254.400 241.307,253.462 244.825,250.785 246.888 C 250.495 247.112,250.375 247.485,250.518 247.717 C 250.676 247.972,250.588 248.068,250.297 247.958 C 250.032 247.858,249.238 248.318,248.534 248.981 C 247.316 250.126,242.430 253.333,241.904 253.333 C 241.767 253.333,241.075 253.641,240.365 254.018 C 238.750 254.875,234.685 256.190,232.641 256.517 C 231.791 256.653,231.005 256.909,230.896 257.086 C 230.787 257.263,229.946 257.407,229.028 257.407 C 228.110 257.407,227.067 257.563,226.711 257.754 C 226.355 257.944,223.824 258.200,221.087 258.321 L 216.111 258.542 214.360 254.942 C 213.397 252.962,212.650 251.300,212.702 251.249 C 212.753 251.198,213.207 251.068,213.712 250.960 C 216.710 250.321,217.478 250.050,223.519 247.505 C 228.072 245.587,233.548 242.196,237.433 238.889 C 240.205 236.528,244.444 232.179,244.444 231.696 C 244.444 231.472,244.819 230.865,245.278 230.347 C 246.187 229.319,246.903 228.274,247.290 227.407 C 247.427 227.102,247.634 226.769,247.751 226.667 C 247.867 226.565,248.256 225.848,248.615 225.073 C 249.396 223.382,249.693 223.498,250.525 225.821 M155.741 230.000 C 155.593 230.239,155.639 230.602,155.842 230.805 C 156.089 231.052,156.302 231.031,156.481 230.741 C 156.629 230.502,156.584 230.139,156.380 229.935 C 156.133 229.689,155.920 229.710,155.741 230.000 M251.960 250.739 C 251.853 251.147,251.599 251.481,251.395 251.481 C 251.191 251.481,250.359 252.147,249.546 252.960 C 248.733 253.773,247.894 254.331,247.681 254.200 C 247.469 254.068,247.112 254.201,246.888 254.494 C 246.256 255.323,244.201 256.670,243.951 256.420 C 243.828 256.297,243.305 256.472,242.789 256.810 C 242.274 257.148,241.852 257.317,241.852 257.185 C 241.852 257.054,241.598 257.157,241.287 257.415 C 240.977 257.673,240.621 257.781,240.496 257.656 C 240.371 257.531,239.750 257.799,239.116 258.250 C 238.482 258.702,237.963 259.011,237.963 258.936 C 237.963 258.862,237.349 259.058,236.599 259.372 C 235.848 259.685,234.932 259.893,234.562 259.833 C 234.192 259.774,233.722 259.848,233.519 259.998 C 233.016 260.368,231.262 260.753,229.320 260.919 C 228.437 260.995,227.437 261.172,227.098 261.313 C 226.191 261.689,225.027 261.823,221.111 261.997 L 217.593 262.154 217.654 263.872 C 217.688 264.817,217.899 265.811,218.123 266.081 C 218.348 266.352,218.439 266.813,218.327 267.106 C 218.214 267.399,218.461 267.946,218.876 268.322 C 219.290 268.697,219.633 269.186,219.638 269.409 C 219.656 270.282,220.988 271.460,222.191 271.666 C 222.887 271.786,223.589 271.966,223.751 272.066 C 225.089 272.893,238.394 272.800,239.763 271.955 C 240.174 271.701,240.976 271.530,242.469 271.378 C 242.911 271.333,243.397 271.171,243.550 271.019 C 243.702 270.866,244.124 270.741,244.488 270.741 C 244.851 270.741,245.282 270.520,245.445 270.250 C 245.743 269.754,246.892 269.140,247.613 269.089 C 247.828 269.074,248.578 268.511,249.280 267.838 C 249.981 267.166,250.910 266.472,251.343 266.297 C 252.057 266.009,252.430 265.048,252.783 262.593 C 252.826 262.287,252.969 261.370,253.100 260.556 C 253.230 259.741,253.419 258.101,253.519 256.912 C 253.619 255.723,253.808 254.575,253.941 254.361 C 254.400 253.617,254.419 251.181,253.968 250.833 C 252.922 250.025,252.156 249.989,251.960 250.739 M253.144 253.981 C 252.852 257.304,252.804 257.698,252.389 260.185 C 251.960 262.758,251.971 262.681,251.908 263.636 C 251.811 265.114,247.471 268.684,244.574 269.670 C 243.790 269.936,242.964 270.287,242.738 270.449 C 239.295 272.922,221.338 272.312,220.307 269.687 C 220.094 269.146,219.757 268.392,219.559 268.011 C 219.074 267.083,218.157 264.028,218.154 263.333 C 218.152 262.889,218.798 262.759,221.390 262.686 C 223.172 262.635,225.380 262.434,226.296 262.239 C 227.213 262.044,229.213 261.683,230.741 261.438 C 232.269 261.193,233.685 260.874,233.889 260.729 C 234.093 260.585,234.925 260.347,235.738 260.200 C 236.551 260.053,237.385 259.825,237.590 259.694 C 237.795 259.563,238.046 259.438,238.148 259.417 C 239.557 259.119,241.852 258.304,241.852 258.101 C 241.852 257.956,242.672 257.565,243.675 257.232 C 244.678 256.899,245.706 256.376,245.961 256.069 C 246.215 255.763,246.936 255.289,247.563 255.016 C 248.641 254.547,249.593 253.862,251.819 251.956 C 253.289 250.697,253.415 250.891,253.144 253.981 M247.778 271.852 C 247.269 272.250,246.642 272.580,246.385 272.584 C 245.953 272.592,243.229 273.703,241.789 274.459 C 241.449 274.638,240.795 274.711,240.335 274.623 C 239.875 274.534,239.303 274.625,239.063 274.824 C 238.294 275.462,229.409 275.845,226.955 275.345 C 222.668 274.472,221.777 275.501,224.261 278.453 C 224.794 279.086,225.149 279.927,225.095 280.426 C 225.039 280.936,225.181 281.261,225.438 281.212 C 225.678 281.166,226.678 281.912,227.660 282.871 C 229.998 285.155,232.121 286.762,233.611 287.373 C 234.597 287.778,234.819 288.078,234.840 289.026 C 234.925 292.965,235.160 293.877,236.355 294.895 C 237.456 295.834,238.524 296.044,239.126 295.442 C 239.267 295.301,239.697 295.185,240.081 295.185 C 241.425 295.185,242.212 290.454,241.298 287.871 C 241.209 287.617,241.588 287.117,242.142 286.760 C 243.265 286.036,245.556 283.851,245.556 283.504 C 245.556 283.381,246.013 282.500,246.573 281.547 C 247.132 280.594,247.611 279.690,247.638 279.537 C 247.664 279.384,247.727 279.176,247.778 279.074 C 247.829 278.972,247.905 278.764,247.947 278.611 C 247.989 278.458,248.402 277.500,248.864 276.481 C 249.326 275.463,249.738 274.426,249.780 274.177 C 249.821 273.929,249.971 273.609,250.113 273.468 C 250.615 272.966,250.361 271.873,249.654 271.495 C 248.758 271.015,248.876 270.993,247.778 271.852 M249.259 272.760 C 249.259 273.732,246.918 279.133,245.157 282.222 C 244.503 283.371,241.574 286.296,241.079 286.296 C 240.858 286.296,240.750 287.704,240.805 289.860 C 240.890 293.196,240.841 293.468,240.037 294.119 C 237.708 296.004,236.024 294.577,235.692 290.439 L 235.445 287.359 233.816 286.593 C 229.554 284.590,221.579 275.352,224.542 275.851 C 232.027 277.111,242.080 275.924,247.037 273.195 C 249.022 272.102,249.259 272.056,249.259 272.760 " stroke="none" fill="#0d0a04" fill-rule="evenodd"></path><path id="path2" d="M138.104 134.537 C 138.080 134.792,138.076 135.113,138.096 135.251 C 138.272 136.514,135.881 140.145,132.932 143.094 L 129.630 146.396 129.630 180.523 C 129.630 219.611,129.957 216.192,126.195 216.371 C 124.125 216.470,123.877 216.567,123.771 217.315 L 123.652 218.148 142.196 218.148 L 160.741 218.148 160.741 217.222 C 160.741 216.331,160.651 216.296,158.379 216.296 C 154.747 216.296,155.016 217.840,154.892 196.240 L 154.783 177.407 164.058 177.407 L 173.333 177.407 173.333 176.111 L 173.333 174.815 164.058 174.815 L 154.783 174.815 154.892 155.964 C 155.017 134.109,154.756 135.556,158.576 135.556 C 160.494 135.556,160.741 135.471,160.741 134.815 C 160.741 133.894,138.191 133.618,138.104 134.537 M274.242 166.992 C 274.084 167.150,272.363 167.441,271.481 167.458 C 270.812 167.471,267.298 168.613,267.037 168.902 C 266.678 169.299,264.027 170.741,263.656 170.741 C 263.449 170.741,263.048 170.949,262.764 171.204 C 261.423 172.406,261.040 172.644,260.361 172.695 C 259.926 172.728,259.630 173.019,259.630 173.412 C 259.630 173.776,259.456 174.074,259.244 174.074 C 258.629 174.074,256.599 175.615,255.098 177.222 C 254.337 178.037,253.712 178.579,253.709 178.426 C 253.702 178.047,246.296 185.477,246.296 185.863 C 246.296 186.033,245.880 186.394,245.370 186.667 C 244.861 186.939,244.444 187.301,244.444 187.470 C 244.444 187.639,244.278 187.778,244.074 187.778 C 243.848 187.778,243.704 186.077,243.704 183.416 C 243.704 177.859,243.914 177.486,247.138 177.332 C 249.208 177.233,249.457 177.137,249.563 176.389 L 249.681 175.556 231.137 175.556 L 212.593 175.556 212.593 176.481 C 212.593 177.372,212.682 177.407,214.955 177.407 C 218.586 177.407,218.318 175.863,218.439 197.464 L 218.544 216.296 209.272 216.296 L 200.000 216.296 200.000 217.593 L 200.000 218.889 209.259 218.889 L 218.519 218.889 218.519 231.339 L 218.519 243.790 219.352 243.596 C 224.302 242.447,231.915 237.797,237.516 232.503 C 243.444 226.900,243.704 226.477,243.704 222.425 L 243.704 219.031 245.176 217.941 C 245.986 217.342,246.653 216.727,246.658 216.574 C 246.663 216.421,247.000 216.296,247.407 216.296 C 247.815 216.296,248.148 216.156,248.148 215.984 C 248.148 215.813,248.731 215.358,249.444 214.974 C 250.157 214.590,250.741 214.064,250.741 213.805 C 250.741 213.545,250.965 213.333,251.240 213.333 C 251.514 213.333,252.123 213.000,252.593 212.593 C 253.062 212.185,253.693 211.852,253.995 211.852 C 254.296 211.852,254.812 211.542,255.142 211.164 C 255.471 210.786,256.116 210.358,256.574 210.213 C 257.032 210.068,257.407 209.795,257.407 209.605 C 257.407 209.415,257.669 209.259,257.989 209.259 C 258.310 209.259,258.804 209.051,259.088 208.796 C 260.270 207.736,260.726 207.407,261.014 207.407 C 261.181 207.407,261.558 207.074,261.852 206.667 C 262.145 206.259,262.539 205.926,262.726 205.926 C 263.288 205.926,266.296 204.335,266.296 204.038 C 266.296 203.886,266.796 203.653,267.407 203.519 C 268.019 203.384,268.519 203.157,268.519 203.013 C 268.519 202.869,269.769 202.091,271.296 201.284 C 272.824 200.477,274.074 199.691,274.074 199.538 C 274.074 199.385,274.396 199.259,274.788 199.259 C 275.181 199.259,275.731 199.031,276.009 198.753 C 276.288 198.474,276.925 198.119,277.425 197.965 C 277.924 197.810,279.015 197.288,279.847 196.805 C 280.680 196.321,281.638 195.926,281.977 195.926 C 282.316 195.926,282.593 195.773,282.593 195.585 C 282.593 195.398,283.415 194.971,284.421 194.637 C 285.426 194.303,286.301 193.898,286.365 193.736 C 286.429 193.575,287.481 193.095,288.704 192.669 C 295.948 190.148,297.611 189.547,298.178 189.243 C 298.525 189.058,299.368 188.822,300.052 188.719 C 300.737 188.616,302.296 188.267,303.519 187.942 C 307.308 186.936,312.572 186.541,314.735 187.099 C 317.902 187.916,320.086 188.689,320.773 189.234 C 321.176 189.553,322.458 190.549,323.623 191.446 C 328.740 195.386,330.891 202.097,328.735 207.401 C 328.243 208.612,327.931 209.950,328.042 210.373 C 328.170 210.863,328.081 211.103,327.798 211.034 C 327.553 210.975,327.013 211.820,326.598 212.912 C 325.793 215.031,325.706 215.156,323.147 217.892 C 322.231 218.872,321.481 219.830,321.481 220.022 C 321.481 220.214,321.307 220.370,321.094 220.370 C 320.881 220.370,320.327 220.745,319.862 221.204 C 319.397 221.662,318.466 222.454,317.793 222.963 C 317.119 223.472,316.231 224.181,315.820 224.537 C 315.408 224.894,314.764 225.185,314.388 225.185 C 314.012 225.185,313.704 225.325,313.704 225.495 C 313.704 225.853,310.030 227.778,309.347 227.778 C 309.095 227.778,308.889 227.937,308.889 228.131 C 308.889 228.325,308.347 228.645,307.685 228.843 C 307.023 229.040,305.315 229.642,303.889 230.180 C 299.337 231.898,298.352 232.211,297.482 232.217 C 297.013 232.220,296.133 232.479,295.526 232.793 C 294.919 233.107,294.275 233.272,294.094 233.161 C 293.914 233.049,293.294 233.147,292.716 233.378 C 292.139 233.608,291.250 233.850,290.741 233.914 C 290.231 233.979,289.398 234.109,288.889 234.204 C 288.380 234.299,287.046 234.492,285.926 234.631 C 284.806 234.771,283.729 234.984,283.534 235.105 C 283.338 235.226,282.422 235.384,281.497 235.456 C 280.572 235.528,278.898 235.669,277.778 235.768 C 272.790 236.210,270.746 236.359,268.148 236.470 C 266.620 236.535,265.245 236.606,265.092 236.627 C 264.939 236.649,265.147 237.289,265.555 238.050 C 265.963 238.811,266.296 239.822,266.296 240.297 C 266.296 242.479,267.230 243.236,269.730 243.080 C 273.795 242.827,279.418 242.362,281.481 242.108 C 281.991 242.045,282.616 242.149,282.870 242.339 C 283.165 242.558,283.333 242.543,283.333 242.297 C 283.333 242.085,284.458 241.793,285.833 241.650 C 287.208 241.507,288.667 241.313,289.074 241.221 C 290.433 240.912,291.659 240.687,292.407 240.608 C 292.815 240.565,293.754 240.321,294.494 240.065 C 295.234 239.810,295.984 239.638,296.160 239.683 C 296.504 239.770,298.725 239.192,301.558 238.277 C 302.517 237.968,303.476 237.822,303.688 237.953 C 303.900 238.084,304.074 238.030,304.074 237.832 C 304.074 237.634,304.741 237.360,305.556 237.222 C 306.370 237.085,307.037 236.820,307.037 236.634 C 307.037 236.448,307.370 236.296,307.778 236.296 C 308.185 236.296,308.519 236.167,308.519 236.008 C 308.519 235.849,309.516 235.424,310.734 235.062 C 311.953 234.700,313.163 234.191,313.423 233.931 C 313.683 233.671,314.341 233.347,314.885 233.210 C 315.429 233.074,316.124 232.712,316.429 232.407 C 316.734 232.102,317.221 231.852,317.509 231.852 C 317.798 231.852,318.380 231.560,318.801 231.204 C 320.749 229.556,321.133 229.259,321.316 229.259 C 321.520 229.259,323.361 227.987,324.515 227.047 C 324.884 226.747,325.185 226.289,325.185 226.029 C 325.185 225.769,325.443 225.556,325.758 225.556 C 326.322 225.556,326.869 225.035,329.074 222.396 C 329.685 221.665,330.477 220.789,330.833 220.451 C 331.190 220.112,331.481 219.629,331.481 219.377 C 331.481 219.124,331.790 218.620,332.167 218.255 C 332.544 217.891,333.043 217.028,333.277 216.338 C 333.510 215.648,333.941 214.898,334.235 214.672 C 334.926 214.140,336.307 210.459,336.059 209.812 C 335.954 209.540,336.064 208.953,336.302 208.509 C 336.705 207.755,336.971 206.278,337.100 204.074 C 337.130 203.565,337.016 202.315,336.848 201.296 C 336.680 200.278,336.518 199.194,336.489 198.889 C 336.460 198.583,336.261 198.000,336.047 197.593 C 335.833 197.185,335.541 196.364,335.398 195.768 C 335.154 194.750,333.085 191.340,331.852 189.923 C 330.286 188.124,329.672 187.514,328.570 186.667 C 327.908 186.157,327.017 185.449,326.589 185.093 C 326.162 184.736,325.640 184.444,325.430 184.444 C 325.220 184.444,324.704 184.141,324.283 183.771 C 323.439 183.028,318.527 181.052,317.049 180.862 C 316.533 180.795,315.528 180.648,314.815 180.535 C 313.138 180.269,307.545 180.269,306.111 180.535 C 301.580 181.376,301.202 181.275,300.001 178.889 C 299.133 177.165,293.920 171.852,293.096 171.852 C 292.839 171.852,292.496 171.627,292.333 171.352 C 291.987 170.769,283.675 167.462,281.821 167.170 C 280.284 166.928,274.443 166.791,274.242 166.992 M284.402 174.863 C 288.888 176.589,292.126 179.090,293.713 182.055 C 294.444 183.421,294.634 183.322,284.444 186.911 C 283.528 187.234,282.444 187.732,282.037 188.017 C 281.630 188.303,280.671 188.706,279.907 188.912 C 279.144 189.119,278.519 189.433,278.519 189.609 C 278.519 189.786,277.560 190.228,276.389 190.591 C 275.218 190.953,274.176 191.359,274.074 191.492 C 273.972 191.625,272.556 192.454,270.926 193.334 C 269.296 194.214,267.907 195.074,267.840 195.245 C 267.772 195.416,267.397 195.556,267.006 195.556 C 266.616 195.556,266.296 195.681,266.296 195.834 C 266.296 195.987,265.046 196.773,263.519 197.580 C 261.991 198.388,260.741 199.179,260.741 199.339 C 260.741 199.499,260.407 199.630,260.000 199.630 C 259.593 199.630,259.259 199.793,259.259 199.993 C 259.259 200.193,258.843 200.461,258.333 200.589 C 257.824 200.716,257.407 200.958,257.407 201.126 C 257.407 201.426,256.405 201.862,255.805 201.823 C 255.637 201.812,255.201 202.147,254.836 202.568 C 254.471 202.989,254.017 203.333,253.828 203.333 C 253.498 203.333,252.973 203.693,250.800 205.407 C 250.258 205.834,249.356 206.295,248.796 206.432 C 248.236 206.569,247.778 206.928,247.778 207.229 C 247.778 207.531,247.583 207.778,247.344 207.778 C 247.105 207.778,246.647 208.005,246.325 208.284 C 246.004 208.562,245.282 208.898,244.722 209.031 L 243.704 209.273 243.704 204.848 C 243.704 201.813,243.849 200.270,244.167 199.934 C 244.422 199.665,245.047 198.821,245.556 198.058 C 246.065 197.296,246.611 196.671,246.768 196.669 C 246.926 196.668,247.214 196.250,247.407 195.741 C 247.601 195.231,247.930 194.815,248.139 194.815 C 248.348 194.815,248.519 194.565,248.519 194.259 C 248.519 193.954,248.769 193.704,249.074 193.704 C 249.380 193.704,249.630 193.454,249.630 193.148 C 249.630 192.843,249.880 192.593,250.185 192.593 C 250.491 192.593,250.741 192.343,250.741 192.037 C 250.741 191.731,250.913 191.481,251.123 191.481 C 251.333 191.481,251.609 191.209,251.737 190.877 C 252.004 190.182,258.093 184.074,258.520 184.074 C 258.675 184.074,258.890 183.741,258.996 183.333 C 259.112 182.890,259.501 182.593,259.965 182.593 C 260.408 182.593,260.741 182.354,260.741 182.037 C 260.741 181.731,260.866 181.481,261.019 181.481 C 261.171 181.480,261.880 180.981,262.593 180.370 C 263.306 179.760,264.006 179.261,264.150 179.260 C 264.293 179.260,264.827 178.843,265.337 178.333 C 265.846 177.824,266.437 177.407,266.650 177.407 C 266.863 177.407,267.037 177.241,267.037 177.037 C 267.037 176.833,267.370 176.667,267.778 176.667 C 268.185 176.667,268.519 176.531,268.519 176.365 C 268.519 176.000,271.158 174.646,271.633 174.768 C 271.818 174.815,272.077 174.679,272.209 174.465 C 272.342 174.251,272.989 174.013,273.647 173.937 C 274.306 173.860,274.924 173.718,275.020 173.622 C 275.679 172.963,281.446 173.727,284.402 174.863 M251.971 252.315 C 248.139 256.546,237.610 261.039,229.074 262.085 C 228.259 262.185,227.343 262.363,227.037 262.482 C 226.193 262.809,224.176 263.018,221.206 263.086 C 219.705 263.121,218.524 263.311,218.525 263.519 C 218.528 264.182,219.542 267.195,220.146 268.333 C 220.471 268.944,220.737 269.645,220.738 269.891 C 220.740 270.136,221.366 270.447,222.130 270.581 C 222.894 270.715,224.602 271.021,225.926 271.262 C 228.400 271.710,234.734 271.738,237.037 271.311 C 240.617 270.647,244.174 269.575,245.227 268.843 C 245.759 268.473,246.301 268.276,246.431 268.406 C 246.560 268.536,246.667 268.459,246.667 268.235 C 246.667 268.011,246.965 267.733,247.330 267.617 C 250.193 266.709,251.736 263.645,252.381 257.593 C 253.118 250.661,253.146 251.018,251.971 252.315 " stroke="none" fill="#fbc343" fill-rule="evenodd"></path><path id="path3" d="M159.744 174.721 C 162.353 174.785,166.520 174.785,169.003 174.721 C 171.487 174.657,169.352 174.605,164.259 174.605 C 159.167 174.605,157.135 174.658,159.744 174.721 M204.559 219.166 C 207.168 219.230,211.334 219.229,213.818 219.165 C 216.301 219.101,214.167 219.049,209.074 219.049 C 203.981 219.050,201.950 219.102,204.559 219.166 M226.523 262.155 C 226.420 262.322,226.827 262.386,227.427 262.298 C 228.027 262.210,228.519 262.074,228.519 261.995 C 228.519 261.713,226.706 261.858,226.523 262.155 " stroke="none" fill="#9c7727" fill-rule="evenodd"></path><path id="path4" d="M173.448 176.852 C 173.450 178.074,173.519 178.529,173.602 177.864 C 173.684 177.198,173.682 176.198,173.598 175.642 C 173.513 175.085,173.446 175.630,173.448 176.852 M199.723 217.593 C 199.727 218.407,199.803 218.697,199.892 218.236 C 199.980 217.776,199.977 217.109,199.884 216.755 C 199.791 216.401,199.719 216.778,199.723 217.593 " stroke="none" fill="#b48c2c" fill-rule="evenodd"></path><path id="path5" d="" stroke="none" fill="#bc8c2c" fill-rule="evenodd"></path><path id="path6" d="M243.844 183.333 C 243.844 185.676,243.904 186.634,243.977 185.463 C 244.051 184.292,244.051 182.375,243.977 181.204 C 243.904 180.032,243.844 180.991,243.844 183.333 M243.768 204.515 C 243.733 206.897,243.829 208.923,243.981 209.018 C 244.134 209.113,244.214 207.831,244.159 206.170 C 243.980 200.725,243.834 200.110,243.768 204.515 M243.835 222.407 C 243.834 224.241,243.897 225.037,243.974 224.178 C 244.052 223.318,244.053 221.818,243.976 220.845 C 243.900 219.871,243.836 220.574,243.835 222.407 " stroke="none" fill="#c69932" fill-rule="evenodd"></path><path id="path7" d="M220.833 263.218 C 221.190 263.311,221.773 263.311,222.130 263.218 C 222.486 263.125,222.194 263.049,221.481 263.049 C 220.769 263.049,220.477 263.125,220.833 263.218 " stroke="none" fill="#dca834" fill-rule="evenodd"></path></g></svg>