<svg id="svg" version="1.1" xmlns="http://www.w3.org/2000/svg" xmlns:xlink="http://www.w3.org/1999/xlink" width="400" height="224.89019033674964" viewBox="0, 0, 400,224.89019033674964"><g id="svgg"><path id="path0" d="M95.838 93.926 C 95.838 94.115,96.039 94.263,96.295 94.263 C 96.546 94.263,96.807 94.440,96.874 94.657 C 96.941 94.873,97.077 95.207,97.177 95.398 C 97.277 95.589,97.487 97.208,97.643 98.997 C 97.800 100.786,98.000 102.300,98.087 102.362 C 98.536 102.680,98.496 105.234,98.044 105.116 C 97.681 105.021,97.612 105.096,97.674 105.523 C 97.730 105.910,97.957 106.098,98.538 106.241 C 98.971 106.348,99.629 106.573,100.000 106.742 C 100.371 106.911,101.055 107.120,101.519 107.206 C 101.983 107.291,102.362 107.429,102.362 107.511 C 102.362 107.593,103.248 107.852,104.331 108.087 C 105.413 108.321,106.350 108.581,106.412 108.663 C 106.556 108.856,108.488 109.336,109.118 109.336 C 109.552 109.336,109.586 109.250,109.457 108.483 C 109.377 108.014,109.306 106.908,109.297 106.026 C 109.277 103.804,108.097 103.390,107.296 105.324 C 106.659 106.862,105.881 107.415,104.680 107.182 L 103.603 106.974 103.457 105.849 C 103.376 105.231,103.253 103.907,103.184 102.909 L 103.057 101.093 103.715 101.190 C 104.105 101.247,104.427 101.459,104.507 101.712 C 104.823 102.708,105.287 102.159,105.287 100.787 C 105.287 99.588,105.237 99.438,104.837 99.438 C 104.587 99.438,104.387 99.588,104.387 99.775 C 104.387 100.000,104.162 100.112,103.712 100.112 C 103.158 100.112,103.037 100.020,103.037 99.595 C 103.037 99.310,102.946 98.981,102.835 98.864 C 102.723 98.746,102.597 97.739,102.553 96.625 L 102.475 94.601 103.601 94.628 C 104.841 94.657,105.554 95.165,106.638 96.793 C 107.059 97.424,107.354 97.635,107.818 97.636 L 108.436 97.638 108.436 95.761 L 108.436 93.885 104.013 93.736 C 97.030 93.503,95.838 93.530,95.838 93.926 M109.336 94.713 C 109.336 94.994,109.486 95.163,109.736 95.163 C 110.335 95.163,110.893 95.948,111.181 97.198 C 111.323 97.811,111.522 98.313,111.625 98.313 C 111.727 98.313,111.811 98.453,111.811 98.624 C 111.811 99.116,112.555 101.335,112.770 101.484 C 113.091 101.707,113.026 102.954,112.652 103.751 C 112.458 104.163,112.177 105.132,112.026 105.906 C 111.876 106.679,111.676 107.312,111.582 107.312 C 111.488 107.312,111.345 107.666,111.263 108.099 C 111.141 108.752,111.019 108.886,110.548 108.886 C 109.421 108.886,109.944 109.863,111.192 110.090 C 111.780 110.197,112.261 110.375,112.261 110.486 C 112.261 110.830,112.881 110.704,113.024 110.330 C 113.266 109.700,113.171 109.392,112.697 109.268 C 112.234 109.147,112.249 107.629,112.716 107.312 C 112.807 107.250,113.011 106.617,113.170 105.906 C 113.328 105.194,113.538 104.612,113.636 104.612 C 113.813 104.612,114.282 106.037,114.284 106.580 C 114.285 106.735,114.366 106.862,114.464 106.862 C 114.609 106.862,115.411 109.417,115.411 109.879 C 115.411 109.952,115.259 110.011,115.073 110.011 C 114.585 110.011,114.658 110.854,115.171 111.128 C 115.410 111.256,115.866 111.361,116.183 111.361 C 116.501 111.361,116.760 111.446,116.760 111.550 C 116.760 111.654,117.494 111.869,118.391 112.028 C 119.289 112.188,120.073 112.391,120.135 112.480 C 120.197 112.569,120.627 112.701,121.091 112.774 C 122.243 112.956,122.333 111.712,121.199 111.294 C 120.980 111.213,120.740 110.841,120.665 110.467 C 120.590 110.092,120.453 109.786,120.361 109.786 C 120.209 109.786,120.113 109.369,119.754 107.143 C 119.689 106.741,119.563 106.412,119.473 106.412 C 118.939 106.412,118.500 103.135,118.866 101.875 C 119.069 101.177,119.235 100.393,119.235 100.134 C 119.235 99.875,119.315 99.663,119.413 99.663 C 119.614 99.663,120.135 97.872,120.135 97.185 C 120.135 96.939,120.229 96.738,120.344 96.738 C 120.459 96.738,120.586 96.510,120.626 96.232 C 120.677 95.869,120.873 95.705,121.316 95.654 C 121.802 95.598,121.935 95.466,121.935 95.036 C 121.935 94.508,121.878 94.488,120.360 94.488 C 118.808 94.488,117.984 95.257,119.083 95.679 C 119.381 95.794,118.701 99.378,118.327 99.663 C 118.246 99.724,118.095 100.079,117.992 100.450 C 117.823 101.058,117.795 101.075,117.717 100.619 C 117.668 100.340,117.551 100.112,117.455 100.112 C 117.360 100.112,117.152 99.530,116.994 98.819 C 116.836 98.107,116.622 97.472,116.519 97.406 C 116.112 97.147,116.003 95.388,116.394 95.388 C 117.096 95.388,116.810 94.554,116.057 94.404 C 114.153 94.023,109.336 94.245,109.336 94.713 M122.160 95.089 C 122.160 95.449,122.338 95.616,122.835 95.726 L 123.510 95.874 123.510 103.955 L 123.510 112.036 122.835 112.036 C 121.913 112.036,121.867 112.866,122.778 113.058 C 123.119 113.129,123.568 113.280,123.778 113.393 C 123.987 113.506,125.227 113.771,126.534 113.983 C 127.840 114.194,128.909 114.450,128.909 114.551 C 128.909 114.653,129.061 114.736,129.246 114.736 C 129.753 114.736,129.668 113.667,129.134 113.334 C 128.722 113.076,128.684 112.809,128.684 110.137 C 128.684 107.869,128.744 107.282,128.954 107.492 C 129.279 107.817,131.609 107.856,131.609 107.537 C 131.609 107.413,131.897 107.312,132.250 107.312 C 133.619 107.312,134.514 106.782,135.834 105.189 C 136.663 104.188,136.662 99.423,135.832 98.402 C 134.309 96.531,133.144 95.637,131.892 95.382 C 131.179 95.236,130.394 95.030,130.146 94.923 C 128.994 94.426,122.159 94.569,122.160 95.089 M137.008 95.739 C 137.008 96.128,137.166 96.319,137.570 96.421 L 138.133 96.562 138.133 100.461 C 138.133 102.818,138.044 104.415,137.908 104.499 C 137.768 104.586,137.683 106.602,137.683 109.800 L 137.683 114.961 137.120 114.961 C 136.670 114.961,136.558 115.073,136.558 115.523 C 136.558 115.858,136.687 116.085,136.877 116.085 C 137.052 116.085,137.229 116.167,137.270 116.266 C 137.342 116.439,142.430 117.214,143.476 117.212 C 144.151 117.210,144.199 116.195,143.532 116.020 C 143.110 115.910,143.083 115.722,143.102 113.013 C 143.119 110.684,143.166 110.276,143.348 110.911 C 143.472 111.344,143.645 111.749,143.731 111.811 C 143.818 111.873,144.032 112.379,144.207 112.936 C 144.382 113.493,144.582 113.999,144.652 114.061 C 145.032 114.399,145.504 116.535,145.199 116.535 C 144.730 116.535,144.798 117.606,145.276 117.744 C 145.492 117.806,146.378 117.928,147.244 118.014 C 148.110 118.100,148.870 118.246,148.931 118.338 C 148.993 118.431,149.778 118.579,150.675 118.669 C 152.625 118.863,152.866 118.464,151.519 117.271 C 151.085 116.888,150.731 116.363,150.731 116.105 C 150.731 115.847,150.646 115.636,150.542 115.636 C 150.438 115.636,150.220 115.079,150.056 114.398 C 149.893 113.718,149.686 113.161,149.595 113.161 C 149.505 113.161,149.361 112.783,149.274 112.321 C 149.187 111.859,148.923 111.081,148.686 110.592 C 148.071 109.318,148.143 108.968,149.156 108.297 C 149.651 107.970,150.056 107.621,150.056 107.523 C 150.056 107.424,150.212 107.188,150.403 106.997 C 151.248 106.152,151.347 99.755,150.519 99.479 C 150.388 99.436,150.281 99.250,150.281 99.067 C 150.281 98.608,147.962 96.288,147.503 96.288 C 147.299 96.288,147.132 96.194,147.132 96.079 C 147.132 95.705,144.847 95.423,140.889 95.309 L 137.008 95.198 137.008 95.739 M170.810 95.640 C 170.408 95.756,170.079 95.942,170.079 96.054 C 170.079 96.166,169.874 96.322,169.625 96.402 C 168.925 96.624,167.871 97.846,167.200 99.213 C 166.530 100.577,166.300 104.815,166.886 105.010 C 167.029 105.058,167.246 105.469,167.369 105.923 C 167.642 106.936,168.126 107.574,170.360 109.863 C 171.319 110.845,172.103 111.728,172.103 111.823 C 172.103 111.919,172.407 112.285,172.778 112.635 C 173.150 112.985,173.453 113.355,173.453 113.457 C 173.453 113.559,173.596 113.786,173.771 113.961 C 174.761 114.950,174.617 117.943,173.532 118.949 C 172.970 119.469,172.103 119.643,172.103 119.235 C 172.103 119.111,171.948 119.010,171.759 119.010 C 171.569 119.010,171.349 118.833,171.270 118.616 C 171.190 118.400,171.002 118.148,170.852 118.057 C 170.098 117.599,170.308 115.680,171.184 115.035 C 171.833 114.557,171.681 111.668,170.979 111.128 C 169.842 110.255,167.534 110.817,167.268 112.031 C 167.186 112.405,167.025 112.711,166.911 112.711 C 166.797 112.711,166.704 113.622,166.704 114.736 C 166.704 115.849,166.793 116.760,166.901 116.760 C 167.009 116.760,167.154 117.042,167.223 117.386 C 167.415 118.348,168.786 119.685,170.261 120.350 C 171.631 120.967,177.053 120.795,177.053 120.134 C 177.053 120.028,177.280 119.868,177.557 119.780 C 178.169 119.586,179.303 118.551,179.303 118.186 C 179.303 118.041,179.403 117.889,179.525 117.848 C 180.812 117.414,180.014 111.223,178.462 109.601 C 178.306 109.438,178.178 109.227,178.178 109.132 C 178.178 109.038,177.717 108.463,177.154 107.855 C 173.660 104.081,173.139 103.445,172.541 102.218 C 171.435 99.949,172.283 96.738,173.988 96.738 C 174.509 96.738,175.478 97.577,175.478 98.027 C 175.478 98.164,175.605 98.317,175.759 98.369 C 175.961 98.436,176.040 99.150,176.040 100.900 C 176.040 102.650,175.961 103.364,175.759 103.431 C 175.358 103.565,175.411 104.313,175.834 104.475 C 177.247 105.018,179.003 104.449,179.203 103.385 C 179.285 102.946,179.443 102.587,179.553 102.587 C 179.663 102.587,179.753 102.030,179.753 101.350 C 179.753 100.669,179.651 100.112,179.528 100.112 C 179.404 100.112,179.303 99.854,179.303 99.539 C 179.303 96.681,174.631 94.537,170.810 95.640 M153.367 95.752 C 153.048 96.071,153.215 96.513,153.656 96.513 C 153.906 96.513,154.106 96.663,154.106 96.850 C 154.106 97.036,154.207 97.188,154.331 97.188 C 154.454 97.188,154.556 97.492,154.556 97.863 C 154.556 98.234,154.454 98.538,154.331 98.538 C 154.191 98.538,154.106 99.763,154.106 101.763 C 154.106 103.537,154.039 107.890,153.957 111.437 L 153.808 117.885 153.282 117.885 C 152.871 117.885,152.756 118.008,152.756 118.448 C 152.756 118.964,152.838 119.010,153.768 119.010 C 154.325 119.010,154.781 119.097,154.781 119.204 C 154.781 119.310,156.223 119.527,157.987 119.687 C 159.750 119.846,161.243 120.049,161.305 120.138 C 161.367 120.226,162.354 120.370,163.498 120.459 L 165.579 120.619 165.579 117.368 C 165.579 115.580,165.644 113.793,165.723 113.397 C 165.864 112.692,165.852 112.679,165.105 112.751 C 164.512 112.807,164.326 112.936,164.270 113.330 C 164.231 113.608,164.105 113.836,163.992 113.836 C 163.879 113.836,163.671 114.291,163.531 114.848 C 163.391 115.405,163.203 115.861,163.114 115.861 C 163.025 115.861,162.820 116.260,162.659 116.749 C 162.497 117.237,162.228 117.690,162.060 117.754 C 161.892 117.818,161.755 118.014,161.755 118.188 C 161.755 118.801,161.130 119.069,160.070 118.910 L 159.055 118.758 159.055 115.748 C 159.055 113.983,159.148 112.680,159.280 112.598 C 159.406 112.521,159.505 111.471,159.505 110.223 C 159.505 108.052,159.520 107.987,160.011 107.994 C 160.753 108.004,161.305 108.515,161.305 109.192 C 161.305 109.918,161.652 109.975,161.838 109.280 C 162.138 108.161,161.997 105.287,161.642 105.287 C 161.451 105.287,161.305 105.489,161.305 105.753 C 161.305 106.396,160.779 106.862,160.053 106.862 L 159.444 106.862 159.608 102.100 C 159.699 99.481,159.825 97.203,159.888 97.038 C 160.202 96.220,162.655 96.924,162.655 97.831 C 162.655 97.980,162.789 98.154,162.954 98.217 C 163.119 98.280,163.390 98.834,163.557 99.447 C 163.724 100.060,163.944 100.562,164.045 100.562 C 164.147 100.562,164.229 100.765,164.229 101.012 C 164.229 101.358,164.379 101.462,164.875 101.462 C 165.633 101.462,165.798 100.877,165.802 98.163 C 165.803 97.080,165.897 96.517,166.085 96.447 C 166.273 96.379,166.292 96.269,166.142 96.119 C 165.881 95.857,153.614 95.505,153.367 95.752 M185.264 95.778 C 185.017 95.839,184.764 95.955,184.702 96.033 C 184.640 96.112,184.159 96.469,183.633 96.825 C 183.107 97.182,182.677 97.588,182.677 97.727 C 182.677 97.866,182.475 98.106,182.227 98.261 C 181.980 98.415,181.777 98.649,181.777 98.781 C 181.777 98.912,181.634 99.163,181.458 99.339 C 181.053 99.744,180.787 102.173,180.930 104.170 C 181.098 106.513,181.759 107.637,184.917 110.942 C 185.840 111.907,186.722 112.941,186.879 113.240 C 187.035 113.538,187.318 113.842,187.507 113.915 C 187.697 113.987,187.852 114.194,187.852 114.375 C 187.852 114.556,188.005 114.857,188.194 115.046 C 188.992 115.844,189.010 118.783,188.222 119.571 C 188.018 119.775,187.852 120.036,187.852 120.151 C 187.852 120.693,186.265 120.344,185.609 119.657 C 184.530 118.529,184.444 117.161,185.384 116.078 C 186.084 115.270,186.018 112.758,185.275 111.956 C 184.728 111.366,182.902 111.061,182.902 111.560 C 182.902 111.669,182.700 111.811,182.453 111.876 C 182.206 111.940,181.935 112.180,181.851 112.408 C 181.767 112.637,181.611 112.882,181.506 112.953 C 180.786 113.441,180.824 118.505,181.549 118.747 C 181.675 118.788,181.778 118.941,181.780 119.085 C 181.784 119.510,183.155 120.668,184.324 121.233 C 185.498 121.801,190.366 121.895,190.729 121.358 C 190.817 121.228,191.215 120.990,191.614 120.829 C 192.598 120.431,193.313 119.729,193.694 118.785 C 193.869 118.352,194.115 117.929,194.239 117.844 C 194.557 117.629,194.557 112.964,194.240 112.759 C 194.103 112.671,193.867 112.219,193.716 111.755 C 193.565 111.291,193.359 110.911,193.260 110.911 C 193.160 110.911,193.019 110.734,192.946 110.517 C 192.726 109.860,192.293 109.306,191.057 108.096 C 190.408 107.459,189.876 106.856,189.876 106.754 C 189.876 106.652,189.440 106.154,188.906 105.647 C 188.373 105.139,187.870 104.547,187.788 104.331 C 187.707 104.114,187.544 103.937,187.427 103.937 C 187.309 103.937,187.145 103.632,187.064 103.260 C 186.982 102.887,186.746 102.414,186.540 102.207 C 185.985 101.653,186.000 98.598,186.558 98.286 C 186.774 98.165,186.952 97.919,186.952 97.739 C 186.952 97.560,187.096 97.413,187.273 97.413 C 187.450 97.413,187.753 97.254,187.948 97.059 C 188.269 96.738,188.334 96.738,188.655 97.059 C 188.849 97.254,189.078 97.413,189.163 97.413 C 189.390 97.413,189.880 98.611,190.030 99.533 C 190.101 99.976,190.248 100.337,190.356 100.337 C 190.679 100.337,190.576 102.264,190.215 102.955 C 189.692 103.957,189.771 104.981,190.382 105.145 C 191.274 105.384,192.310 105.297,192.616 104.957 C 193.542 103.930,193.590 103.790,193.667 101.873 C 193.745 99.908,193.724 99.821,192.769 98.065 C 191.695 96.092,188.232 95.036,185.264 95.778 M129.359 96.027 C 129.359 96.131,129.607 96.329,129.910 96.467 C 130.348 96.667,130.520 96.999,130.743 98.078 C 130.897 98.826,131.105 99.438,131.204 99.438 C 131.303 99.438,131.384 100.298,131.384 101.350 C 131.384 102.475,131.291 103.262,131.159 103.262 C 131.035 103.262,130.934 103.463,130.934 103.707 C 130.934 105.062,130.052 106.172,128.965 106.184 C 128.668 106.187,128.534 96.940,128.820 96.194 C 128.963 95.822,129.359 95.699,129.359 96.027 M144.708 97.132 C 144.898 97.348,145.123 97.753,145.208 98.031 C 145.293 98.310,145.443 98.538,145.541 98.538 C 145.816 98.538,146.232 100.923,146.232 102.501 C 146.232 104.021,145.849 106.187,145.580 106.187 C 145.490 106.187,145.279 106.534,145.113 106.959 C 144.929 107.426,144.611 107.781,144.304 107.858 C 144.026 107.927,143.663 108.037,143.497 108.101 C 143.198 108.215,143.140 98.599,143.432 97.244 C 143.563 96.634,144.220 96.576,144.708 97.132 " stroke="none" fill="#fcc444" fill-rule="evenodd"></path><path id="path1" d="M321.573 94.643 C 321.312 94.694,320.966 94.984,320.804 95.287 C 320.642 95.590,320.425 95.838,320.322 95.838 C 320.219 95.838,320.135 97.103,320.135 98.650 C 320.135 100.197,320.211 101.463,320.304 101.464 C 320.948 101.471,320.973 102.634,320.343 103.279 C 319.699 103.939,319.508 104.789,319.822 105.606 C 319.976 106.009,322.160 106.132,322.160 105.737 C 322.160 105.613,322.298 105.512,322.467 105.512 C 322.839 105.512,323.758 104.620,324.161 103.869 C 324.481 103.271,323.981 102.362,323.331 102.362 C 323.097 102.362,323.109 102.281,323.381 102.009 C 323.575 101.815,323.796 101.410,323.871 101.109 C 323.947 100.808,324.083 100.562,324.174 100.562 C 324.415 100.562,325.084 97.345,325.084 96.185 C 325.084 94.618,324.037 94.158,321.573 94.643 M313.836 94.938 C 313.836 95.078,312.598 95.163,310.574 95.163 C 307.824 95.163,307.312 95.216,307.312 95.501 C 307.312 95.688,307.512 95.838,307.762 95.838 C 308.279 95.838,308.350 98.094,308.064 105.353 L 307.917 109.091 307.277 109.232 C 306.677 109.363,306.302 110.236,306.844 110.236 C 307.252 110.236,309.451 109.694,309.561 109.566 C 309.623 109.495,310.274 109.314,311.008 109.165 C 311.742 109.015,312.400 108.813,312.471 108.714 C 312.541 108.616,313.510 108.351,314.623 108.124 C 315.737 107.898,316.699 107.631,316.761 107.533 C 316.823 107.434,317.235 107.285,317.675 107.203 C 318.897 106.973,318.939 106.898,319.063 104.668 C 319.156 102.997,319.118 102.587,318.869 102.587 C 318.699 102.587,318.560 102.664,318.560 102.757 C 318.560 102.851,318.263 103.059,317.900 103.219 C 317.461 103.414,317.192 103.734,317.095 104.176 C 317.014 104.542,316.755 104.945,316.517 105.072 C 316.280 105.199,316.085 105.408,316.085 105.537 C 316.085 105.980,314.764 107.092,314.075 107.230 C 313.696 107.306,313.386 107.456,313.386 107.565 C 313.386 107.673,313.308 107.762,313.214 107.762 C 313.035 107.762,313.096 103.086,313.286 102.193 C 313.422 101.559,314.961 101.426,314.961 102.049 C 314.961 102.286,315.083 102.363,315.316 102.274 C 315.512 102.199,315.715 102.137,315.766 102.137 C 315.818 102.137,315.861 101.580,315.861 100.900 C 315.861 99.813,315.806 99.663,315.411 99.663 C 315.111 99.663,314.961 99.813,314.961 100.112 C 314.961 100.362,314.811 100.562,314.623 100.562 C 314.438 100.562,314.286 100.664,314.286 100.787 C 314.286 100.911,314.083 101.012,313.836 101.012 C 313.412 101.012,313.386 100.862,313.386 98.429 L 313.386 95.847 313.962 95.702 C 315.483 95.320,317.268 96.066,317.733 97.278 C 317.943 97.826,319.235 97.764,319.235 97.207 C 319.235 96.969,319.321 96.742,319.426 96.700 C 319.531 96.659,319.684 96.195,319.766 95.669 L 319.915 94.713 316.876 94.713 C 314.999 94.713,313.836 94.799,313.836 94.938 M297.132 95.554 L 295.838 95.636 295.838 97.199 C 295.838 98.091,295.935 98.763,296.063 98.763 C 296.187 98.763,296.288 98.965,296.288 99.213 C 296.288 99.463,296.438 99.663,296.625 99.663 C 296.813 99.663,296.963 99.463,296.963 99.213 C 296.963 98.965,297.054 98.763,297.166 98.763 C 297.277 98.763,297.471 98.470,297.595 98.113 C 298.025 96.879,298.745 96.288,299.816 96.288 C 300.350 96.288,300.787 96.321,300.787 96.360 C 300.787 96.604,299.992 98.727,299.761 99.100 C 299.607 99.348,299.413 99.879,299.329 100.281 C 299.245 100.683,299.085 101.012,298.973 101.012 C 298.861 101.012,298.654 101.468,298.514 102.025 C 298.374 102.582,298.192 103.037,298.110 103.037 C 298.028 103.037,297.820 103.516,297.647 104.101 C 297.474 104.686,297.205 105.411,297.049 105.711 C 296.893 106.012,296.648 106.748,296.504 107.347 C 296.361 107.946,296.159 108.436,296.057 108.436 C 295.954 108.436,295.746 108.993,295.593 109.674 C 295.441 110.354,295.236 110.911,295.138 110.911 C 294.961 110.911,294.492 112.336,294.489 112.880 C 294.489 113.034,294.755 113.161,295.081 113.161 C 295.987 113.161,298.538 112.654,298.538 112.474 C 298.538 112.386,299.348 112.183,300.337 112.022 C 301.327 111.861,302.137 111.663,302.137 111.582 C 302.137 111.500,302.829 111.309,303.675 111.158 L 305.213 110.884 305.203 108.198 C 305.195 105.814,305.151 105.512,304.808 105.512 C 304.563 105.512,304.369 105.757,304.274 106.187 C 304.193 106.558,304.043 106.862,303.942 106.862 C 303.840 106.862,303.575 107.368,303.353 107.987 C 303.130 108.605,302.886 109.111,302.810 109.111 C 302.733 109.111,302.535 109.459,302.368 109.883 C 302.164 110.403,301.875 110.701,301.483 110.794 C 301.162 110.870,300.729 110.983,300.520 111.045 C 300.083 111.175,300.613 108.817,301.143 108.279 C 301.289 108.130,301.476 107.649,301.558 107.210 C 301.640 106.771,301.782 106.412,301.873 106.412 C 301.964 106.412,302.174 105.956,302.338 105.399 C 302.502 104.843,302.705 104.387,302.789 104.387 C 302.873 104.387,303.140 103.729,303.383 102.925 C 303.626 102.120,303.896 101.462,303.984 101.462 C 304.072 101.462,304.265 101.057,304.414 100.562 C 304.562 100.067,304.746 99.663,304.823 99.663 C 304.901 99.663,305.098 99.207,305.263 98.650 C 305.427 98.093,305.632 97.638,305.718 97.638 C 305.899 97.638,306.637 96.041,306.637 95.650 C 306.637 95.397,300.604 95.336,297.132 95.554 M209.561 95.809 C 208.550 96.052,207.199 96.714,207.199 96.966 C 207.199 97.088,207.073 97.187,206.918 97.186 C 206.572 97.185,205.174 98.762,205.174 99.154 C 205.174 99.310,205.085 99.438,204.976 99.438 C 204.630 99.438,204.274 101.373,204.274 103.262 C 204.274 105.151,204.630 107.087,204.976 107.087 C 205.085 107.087,205.174 107.238,205.174 107.424 C 205.174 107.610,205.377 107.964,205.624 108.211 C 205.872 108.459,206.074 108.752,206.074 108.862 C 206.074 108.972,206.832 109.807,207.757 110.718 C 208.683 111.628,209.442 112.457,209.444 112.560 C 209.447 112.662,209.854 113.124,210.349 113.585 C 210.844 114.047,211.249 114.540,211.249 114.681 C 211.249 114.823,211.390 115.019,211.562 115.118 C 212.242 115.508,212.572 117.948,212.151 119.466 C 211.745 120.925,209.785 121.424,209.129 120.236 C 208.995 119.995,208.799 119.734,208.693 119.657 C 208.207 119.302,208.245 117.384,208.746 117.007 C 209.777 116.229,209.562 112.465,208.469 112.172 C 206.067 111.527,204.499 113.309,204.499 116.685 C 204.499 119.199,205.926 121.503,207.705 121.865 C 208.046 121.934,208.324 122.080,208.324 122.188 C 208.324 122.296,209.387 122.385,210.686 122.385 C 211.985 122.385,213.048 122.292,213.048 122.180 C 213.048 122.067,213.458 121.905,213.959 121.820 C 214.909 121.660,217.323 119.717,217.323 119.114 C 217.323 118.954,217.449 118.780,217.604 118.729 C 217.976 118.605,218.007 112.998,217.637 112.759 C 217.500 112.671,217.262 112.212,217.108 111.739 C 216.954 111.266,216.686 110.825,216.513 110.759 C 216.340 110.692,216.198 110.507,216.198 110.347 C 216.198 110.187,215.693 109.565,215.077 108.965 C 214.460 108.365,213.954 107.786,213.952 107.678 C 213.950 107.570,213.307 106.861,212.523 106.103 C 211.739 105.345,211.034 104.547,210.955 104.331 C 210.877 104.114,210.722 103.937,210.610 103.937 C 210.498 103.937,210.279 103.479,210.122 102.919 C 209.965 102.359,209.750 101.847,209.643 101.781 C 209.398 101.630,209.385 99.213,209.629 99.213 C 209.727 99.213,209.932 98.870,210.084 98.450 C 210.654 96.873,212.471 96.904,213.042 98.500 C 213.204 98.954,213.437 99.390,213.560 99.469 C 213.905 99.692,213.900 103.765,213.555 103.880 C 213.041 104.052,213.217 105.219,213.780 105.370 C 215.263 105.768,216.454 105.349,216.834 104.296 C 217.390 102.760,217.026 98.895,216.286 98.470 C 216.114 98.371,215.973 98.141,215.973 97.959 C 215.973 97.777,215.720 97.513,215.411 97.372 C 215.101 97.231,214.848 97.043,214.848 96.954 C 214.848 96.865,214.519 96.659,214.117 96.497 C 213.715 96.334,213.332 96.124,213.267 96.031 C 213.094 95.783,210.352 95.619,209.561 95.809 M243.784 95.795 C 243.180 95.834,242.540 96.011,242.362 96.189 C 242.183 96.367,241.885 96.513,241.699 96.513 C 241.183 96.513,238.342 99.473,238.159 100.201 C 238.070 100.553,237.863 100.976,237.699 101.141 C 237.534 101.306,237.327 101.825,237.239 102.294 C 237.151 102.764,236.990 103.204,236.880 103.271 C 236.071 103.772,236.044 113.739,236.851 114.265 C 236.963 114.338,237.181 114.930,237.335 115.579 C 237.489 116.229,237.699 116.760,237.803 116.760 C 237.906 116.760,238.060 116.980,238.145 117.249 C 238.348 117.888,240.243 119.910,240.638 119.910 C 240.807 119.910,240.945 120.006,240.945 120.124 C 240.945 120.445,242.472 120.807,243.826 120.809 C 245.179 120.810,247.019 120.406,247.019 120.108 C 247.019 119.999,247.140 119.910,247.287 119.910 C 247.510 119.910,248.816 118.615,249.442 117.773 C 249.803 117.288,250.169 116.262,250.169 115.737 C 250.169 115.434,250.270 115.186,250.394 115.186 C 250.788 115.186,250.680 111.208,250.281 111.055 C 249.726 110.842,249.327 111.124,249.186 111.832 C 248.612 114.703,243.929 115.076,243.093 112.317 C 243.008 112.039,242.852 111.811,242.746 111.811 C 242.639 111.811,242.424 111.229,242.269 110.517 C 242.113 109.806,241.878 109.152,241.746 109.063 C 241.400 108.831,241.420 100.825,241.768 100.610 C 241.911 100.521,242.102 100.057,242.192 99.578 C 242.282 99.098,242.544 98.545,242.775 98.347 C 243.006 98.149,243.195 97.870,243.195 97.727 C 243.195 97.414,244.006 97.168,244.462 97.343 C 244.827 97.483,245.444 98.568,245.444 99.070 C 245.444 99.252,245.562 99.439,245.707 99.487 C 245.887 99.548,245.962 100.360,245.948 102.093 L 245.928 104.612 246.474 104.612 C 246.774 104.612,247.019 104.713,247.019 104.837 C 247.019 104.961,247.171 105.062,247.357 105.062 C 247.542 105.062,247.694 104.961,247.694 104.837 C 247.694 104.713,247.923 104.612,248.203 104.612 C 248.836 104.612,249.892 103.658,250.078 102.918 C 250.155 102.612,250.308 102.362,250.418 102.362 C 250.667 102.362,250.686 100.058,250.440 99.764 C 250.341 99.646,250.131 99.167,249.973 98.700 C 249.625 97.672,248.913 96.922,247.892 96.509 C 247.474 96.340,247.081 96.134,247.019 96.052 C 246.866 95.849,245.121 95.710,243.784 95.795 M287.683 95.780 C 286.168 95.858,286.164 95.860,286.164 96.523 C 286.164 97.104,286.245 97.188,286.805 97.188 L 287.445 97.188 287.591 99.719 C 287.945 105.860,287.778 113.643,287.289 113.771 C 286.992 113.848,286.839 114.077,286.839 114.447 C 286.839 115.006,289.405 115.060,289.764 114.509 C 289.826 114.414,290.636 114.220,291.564 114.079 C 293.963 113.714,294.038 113.679,294.038 112.921 C 294.038 112.374,293.946 112.261,293.497 112.261 L 292.955 112.261 292.873 104.893 C 292.782 96.777,292.784 96.738,293.390 96.738 C 293.692 96.738,293.813 96.576,293.813 96.175 L 293.813 95.613 291.507 95.657 C 290.239 95.681,288.518 95.737,287.683 95.780 M225.084 96.063 C 225.008 96.187,224.747 96.288,224.504 96.288 C 223.762 96.288,221.034 99.243,220.766 100.337 C 220.690 100.647,220.538 100.959,220.427 101.032 C 220.172 101.200,219.579 103.406,219.575 104.199 C 219.574 104.529,219.446 104.842,219.291 104.893 C 218.936 105.012,218.899 113.324,219.253 113.568 C 219.377 113.653,219.660 114.508,219.882 115.467 C 220.104 116.426,220.360 117.210,220.450 117.210 C 220.540 117.210,220.752 117.565,220.922 117.998 C 221.092 118.431,221.314 118.785,221.414 118.785 C 221.515 118.785,221.597 118.900,221.597 119.040 C 221.597 119.391,223.219 121.034,223.566 121.035 C 223.720 121.035,223.847 121.124,223.847 121.233 C 223.847 121.521,225.669 121.935,226.928 121.934 C 228.186 121.932,229.696 121.559,229.696 121.249 C 229.696 121.131,229.838 121.035,230.011 121.035 C 230.500 121.035,232.567 118.645,232.733 117.887 C 232.815 117.515,232.971 117.210,233.080 117.210 C 233.189 117.210,233.403 116.780,233.557 116.254 C 233.711 115.728,233.908 115.247,233.996 115.184 C 234.809 114.608,234.794 103.037,233.980 103.037 C 233.898 103.037,233.696 102.511,233.531 101.869 C 233.367 101.226,233.145 100.593,233.038 100.462 C 232.932 100.332,232.495 99.703,232.068 99.065 C 231.026 97.506,230.316 96.828,229.366 96.485 C 228.929 96.327,228.571 96.117,228.571 96.018 C 228.571 95.755,225.248 95.798,225.084 96.063 M278.065 96.052 C 278.065 96.202,277.169 96.288,275.591 96.288 C 273.266 96.288,273.116 96.315,273.116 96.738 C 273.116 97.033,273.266 97.188,273.551 97.188 C 274.195 97.188,274.197 97.221,274.366 107.231 L 274.522 116.487 274.044 116.639 C 273.420 116.837,273.397 117.660,274.016 117.660 C 274.263 117.660,274.466 117.580,274.466 117.482 C 274.466 117.385,275.934 117.116,277.728 116.884 C 279.522 116.653,280.990 116.392,280.990 116.304 C 280.990 116.216,281.952 116.016,283.127 115.861 C 284.303 115.705,285.264 115.489,285.264 115.382 C 285.264 115.274,285.467 115.186,285.714 115.186 C 286.145 115.186,286.162 115.055,286.108 112.139 L 286.052 109.093 285.377 109.158 C 284.873 109.207,284.684 109.352,284.630 109.730 C 284.590 110.008,284.472 110.236,284.367 110.236 C 284.261 110.236,284.106 110.551,284.022 110.935 C 283.647 112.642,281.945 115.186,281.178 115.186 C 280.951 115.186,280.765 115.287,280.765 115.411 C 280.765 115.774,280.151 115.668,280.002 115.280 C 279.926 115.084,279.865 112.756,279.865 110.105 C 279.865 107.043,279.783 105.287,279.640 105.287 C 279.499 105.287,279.415 103.819,279.415 101.334 C 279.415 97.211,279.519 96.738,280.428 96.738 C 280.659 96.738,280.770 96.590,280.723 96.344 C 280.637 95.892,278.065 95.609,278.065 96.052 M250.844 97.285 C 250.844 97.914,250.937 98.070,251.350 98.128 C 252.323 98.267,252.579 119.460,251.607 119.460 C 251.418 119.460,251.294 119.696,251.294 120.053 L 251.294 120.646 253.937 120.485 C 255.391 120.397,256.614 120.231,256.655 120.117 C 256.697 120.003,257.228 119.910,257.837 119.910 C 258.916 119.910,258.943 119.893,258.943 119.235 C 258.943 118.677,258.851 118.560,258.415 118.560 C 257.771 118.560,257.593 116.311,257.593 108.176 C 257.593 105.050,257.511 103.262,257.368 103.262 C 257.231 103.262,257.143 102.282,257.143 100.771 C 257.143 98.202,257.322 97.638,258.139 97.638 C 258.366 97.638,258.493 97.437,258.493 97.075 L 258.493 96.513 254.668 96.513 L 250.844 96.513 250.844 97.285 M264.590 97.937 C 264.454 98.721,264.342 99.581,264.342 99.850 C 264.342 100.118,264.258 100.337,264.156 100.337 C 264.054 100.337,263.781 101.603,263.550 103.150 C 263.319 104.696,263.062 105.962,262.978 105.962 C 262.894 105.962,262.698 106.924,262.542 108.099 C 262.387 109.274,262.187 110.236,262.100 110.236 C 262.012 110.236,261.806 111.249,261.642 112.486 C 261.479 113.723,261.271 114.736,261.182 114.736 C 261.092 114.736,260.951 115.318,260.867 116.029 C 260.676 117.661,260.545 118.110,260.261 118.110 C 259.868 118.110,259.393 118.734,259.393 119.250 C 259.393 119.718,259.462 119.739,260.574 119.606 C 261.223 119.528,261.932 119.463,262.148 119.462 C 262.751 119.459,262.689 118.201,262.079 118.042 C 261.618 117.921,261.629 116.409,262.093 116.085 C 262.182 116.024,262.324 115.501,262.409 114.924 C 262.584 113.739,262.772 113.611,264.342 113.611 C 265.388 113.611,265.437 113.640,265.590 114.342 C 265.677 114.744,265.825 115.124,265.918 115.186 C 266.416 115.517,266.413 117.660,265.914 117.660 C 265.555 117.660,265.456 117.758,265.555 118.016 C 265.630 118.212,265.692 118.474,265.692 118.598 C 265.692 118.856,269.107 118.607,269.291 118.336 C 269.353 118.245,270.105 118.096,270.962 118.006 C 272.952 117.795,273.116 117.724,273.116 117.074 C 273.116 116.650,272.997 116.535,272.553 116.535 C 272.203 116.535,271.991 116.408,271.991 116.198 C 271.991 116.012,271.904 115.861,271.797 115.861 C 271.690 115.861,271.474 115.253,271.316 114.511 C 271.159 113.768,270.958 113.161,270.871 113.161 C 270.784 113.161,270.588 112.604,270.436 111.924 C 270.284 111.243,270.082 110.686,269.987 110.686 C 269.892 110.686,269.630 109.876,269.404 108.886 C 269.178 107.897,268.922 107.087,268.835 107.087 C 268.749 107.087,268.549 106.479,268.391 105.737 C 268.234 104.994,268.029 104.387,267.936 104.387 C 267.843 104.387,267.643 103.729,267.492 102.925 C 267.340 102.120,267.146 101.462,267.061 101.462 C 266.976 101.462,266.718 100.703,266.487 99.775 C 266.255 98.847,265.993 98.088,265.904 98.088 C 265.815 98.088,265.675 97.733,265.594 97.300 C 265.355 96.023,264.870 96.331,264.590 97.937 M226.997 98.235 C 226.997 98.402,227.084 98.538,227.191 98.538 C 227.298 98.538,227.517 99.170,227.679 99.944 C 227.840 100.717,228.040 101.400,228.122 101.462 C 228.314 101.607,228.797 105.107,228.797 106.355 C 228.797 106.881,228.898 107.312,229.021 107.312 C 229.164 107.312,229.246 108.924,229.246 111.699 C 229.246 114.473,229.164 116.085,229.021 116.085 C 228.898 116.085,228.796 116.384,228.796 116.749 C 228.796 117.890,228.310 119.743,227.894 120.190 C 227.439 120.678,226.547 120.030,226.547 119.211 C 226.547 118.998,226.447 118.789,226.324 118.748 C 226.202 118.706,225.941 117.812,225.745 116.760 C 225.549 115.709,225.297 114.676,225.185 114.465 C 224.474 113.127,224.450 99.695,225.159 99.228 C 225.265 99.158,225.427 98.797,225.518 98.426 C 225.827 97.166,226.997 97.014,226.997 98.235 M264.104 108.886 C 264.344 109.049,264.841 111.775,264.678 112.038 C 264.602 112.161,264.151 112.261,263.675 112.261 L 262.810 112.261 262.935 111.305 C 263.003 110.779,263.133 110.298,263.224 110.236 C 263.314 110.174,263.471 109.567,263.573 108.886 C 263.697 108.056,263.787 107.834,263.848 108.211 C 263.897 108.521,264.012 108.825,264.104 108.886 " stroke="none" fill="#744404" fill-rule="evenodd"></path><path id="path2" d="M263.044 105.287 C 263.044 105.720,263.091 105.897,263.147 105.681 C 263.204 105.464,263.204 105.110,263.147 104.893 C 263.091 104.677,263.044 104.854,263.044 105.287 M196.252 115.860 C 195.984 115.968,195.635 116.417,195.475 116.858 C 195.316 117.299,195.104 117.660,195.005 117.660 C 194.907 117.660,194.826 118.369,194.826 119.235 C 194.826 120.135,194.922 120.810,195.051 120.810 C 195.174 120.810,195.276 120.965,195.276 121.155 C 195.276 121.773,195.968 122.578,196.623 122.722 C 197.447 122.903,197.866 124.634,197.085 124.634 C 196.688 124.634,195.907 125.545,196.029 125.865 C 196.172 126.237,197.525 126.359,197.525 126.000 C 197.525 125.885,197.743 125.758,198.009 125.719 C 198.274 125.679,198.603 125.444,198.740 125.197 C 198.876 124.949,199.047 124.696,199.120 124.634 C 199.734 124.110,200.039 119.141,199.560 117.468 C 199.127 115.960,197.711 115.272,196.252 115.860 " stroke="none" fill="#040404" fill-rule="evenodd"></path><path id="path3" d="" stroke="none" fill="#dcc824" fill-rule="evenodd"></path><path id="path4" d="" stroke="none" fill="#988424" fill-rule="evenodd"></path></g></svg>